<!DOCTYPE svg PUBLIC "-//W3C//DTD SVG 20010904//EN" "http://www.w3.org/TR/2001/REC-SVG-20010904/DTD/svg10.dtd">
<svg version="1.0" xmlns="http://www.w3.org/2000/svg" width="78px" height="85px" viewBox="0 0 780 850" preserveAspectRatio="xMidYMid meet">
<g id="layer101" fill="#101d01" stroke="none">
<path d="M0 425 l0 -425 390 0 390 0 0 425 0 425 -390 0 -390 0 0 -425z"/>
</g>
<g id="layer102" fill="#9e0c0d" stroke="none">
<path d="M0 425 l0 -415 390 0 390 0 0 415 0 415 -390 0 -390 0 0 -415z"/>
</g>
<g id="layer103" fill="#c30201" stroke="none">
<path d="M0 420 l0 -410 390 0 390 0 0 410 0 410 -390 0 -390 0 0 -410z"/>
</g>
<g id="layer104" fill="#fa0909" stroke="none">
<path d="M10 458 c0 -205 -3 -390 -6 -411 l-7 -37 392 0 391 0 0 410 0 410 -385 0 -385 0 0 -372z"/>
</g>
<g id="layer105" fill="#fb302e" stroke="none">
<path d="M17 823 c-4 -3 -7 -174 -7 -379 l0 -373 38 -4 37 -4 -42 -1 c-39 -2 -43 -5 -43 -27 l0 -25 128 1 c97 1 118 3 89 10 -94 22 -157 76 -157 135 0 36 19 61 55 70 22 6 23 9 27 137 3 114 7 138 27 176 16 32 20 46 12 54 -9 9 -17 8 -31 -1 -24 -15 -26 -5 -4 26 18 26 41 28 66 5 18 -16 21 -16 49 1 17 10 33 15 36 12 4 -3 1 -6 -5 -6 -23 0 -81 -62 -97 -104 -14 -36 -15 -48 -4 -67 16 -32 28 -39 64 -39 17 0 51 -10 75 -23 l45 -22 38 40 c44 46 49 92 17 155 l-20 39 25 17 c20 13 28 14 40 4 19 -16 20 -41 1 -34 -23 9 -28 -13 -11 -52 11 -27 15 -74 15 -180 l0 -144 35 0 c29 0 36 -4 41 -25 8 -34 20 -31 33 6 13 38 15 229 2 229 -5 0 -11 7 -14 14 -4 11 -1 13 10 9 13 -5 14 -3 3 17 -8 15 -8 20 -1 16 7 -5 11 3 11 19 0 15 4 24 10 20 5 -3 10 -21 10 -40 0 -28 3 -33 20 -30 11 2 22 -1 26 -6 3 -5 2 -9 -3 -8 -41 7 -43 2 -43 -109 0 -108 0 -109 35 -158 48 -67 48 -117 -2 -143 -47 -24 -113 -3 -113 37 0 16 -3 15 -46 -10 -21 -12 -58 -27 -83 -34 -41 -11 -22 -13 162 -13 l207 -1 0 25 c0 22 -5 25 -37 27 -38 1 -38 1 -5 5 l32 4 -2 377 -3 377 -371 3 c-204 1 -373 -1 -377 -5z m326 -180 c-7 -2 -19 -2 -25 0 -7 3 -2 5 12 5 14 0 19 -2 13 -5z m204 -10 c-4 -3 -7 0 -7 7 0 7 3 10 7 7 3 -4 3 -10 0 -14z m-162 -3 c3 -5 4 -10 1 -10 -3 0 -8 5 -11 10 -3 6 -4 10 -1 10 3 0 8 -4 11 -10z m-35 -35 c11 -13 7 -15 -24 -15 -21 0 -35 4 -32 9 3 5 16 7 29 4 18 -4 19 -3 7 6 -8 6 -10 11 -4 11 6 0 17 -7 24 -15z m200 11 c0 -2 -8 -10 -17 -17 -16 -13 -17 -12 -4 4 13 16 21 21 21 13z m55 -46 c3 -5 4 -10 1 -10 -3 0 -8 5 -11 10 -3 6 -4 10 -1 10 3 0 8 -4 11 -10z m70 -40 c3 -5 4 -10 1 -10 -3 0 -8 5 -11 10 -3 6 -4 10 -1 10 3 0 8 -4 11 -10z m-384 -27 c2 1 -2 -4 -10 -10 -8 -7 -22 -13 -30 -13 -13 0 -13 2 -2 9 7 5 10 14 6 21 -6 9 -3 9 12 1 11 -6 22 -9 24 -8z m109 -2 c0 -5 8 -12 18 -14 9 -3 3 -5 -15 -6 -17 0 -35 3 -38 9 -4 6 1 7 11 3 12 -4 15 -3 10 5 -4 7 -2 12 3 12 6 0 11 -4 11 -9z m-170 -5 c0 -3 -5 -8 -12 -12 -7 -4 -8 -3 -4 4 7 12 16 16 16 8z m469 -29 c0 -9 -2 -8 -6 1 -2 6 -10 9 -15 6 -7 -4 -8 -2 -4 5 9 13 26 5 25 -12z"/>
<path d="M186 352 c-3 -4 -6 -45 -7 -90 -2 -76 -9 -97 -24 -72 -9 14 -48 13 -63 -2 -34 -34 1 -94 78 -134 84 -42 262 -25 330 33 64 53 60 120 -6 110 l-33 -6 -3 82 -3 81 -132 4 c-72 1 -134 -1 -137 -6z"/>
<path d="M582 162 c-38 -59 -40 -81 -9 -110 28 -26 45 -27 75 -6 30 21 31 83 1 110 -12 10 -24 27 -28 37 -6 15 -13 9 -39 -31z m68 -67 c0 -12 -6 -28 -14 -34 -12 -10 -15 -3 -18 44 -3 55 -3 56 15 34 9 -11 17 -31 17 -44z"/>
</g>
<g id="layer106" fill="#f74141" stroke="none">
<path d="M383 822 l-373 -2 0 -375 0 -374 38 -4 37 -4 -42 -1 c-39 -2 -43 -5 -43 -27 l0 -25 123 1 c113 0 119 1 82 13 -100 32 -145 74 -145 138 0 37 3 41 40 56 l40 17 0 120 c0 107 3 126 25 174 28 59 22 81 -14 62 -27 -15 -29 8 -3 32 24 21 41 21 64 0 18 -16 21 -16 49 1 17 10 33 16 35 13 3 -3 -4 -8 -15 -12 -55 -17 -110 -123 -89 -171 11 -25 21 -28 91 -38 21 -3 49 -13 64 -24 l26 -19 38 42 c28 31 39 51 39 74 0 43 -23 96 -57 128 -28 27 -28 27 -2 11 24 -15 27 -15 43 0 13 13 20 14 34 6 22 -14 29 -46 9 -38 -24 9 -29 -12 -12 -52 11 -27 15 -74 15 -180 l0 -144 35 0 c29 0 36 -4 41 -25 18 -71 44 14 44 143 0 50 -4 92 -9 92 -5 0 -12 7 -15 16 -3 8 -2 12 4 9 15 -9 12 13 -6 39 -10 17 -12 26 -4 31 6 3 10 3 9 -2 -3 -18 2 -33 11 -33 6 0 10 9 10 21 0 11 5 17 10 14 6 -3 10 -21 10 -40 0 -28 3 -33 20 -30 11 2 22 0 25 -6 4 -5 -5 -9 -19 -9 l-26 0 0 -108 c0 -106 0 -107 35 -156 41 -58 46 -105 15 -136 -38 -38 -130 -18 -130 28 0 17 -8 15 -40 -8 -15 -11 -52 -26 -81 -34 -52 -14 -46 -15 154 -15 l207 -1 0 25 c0 22 -5 25 -37 27 -37 1 -37 1 -5 5 l32 4 0 374 c0 206 -3 375 -7 377 -5 2 -176 2 -380 0z m224 -164 c-3 -8 -6 -5 -6 6 -1 11 2 17 5 13 3 -3 4 -12 1 -19z m-254 -15 c-7 -2 -21 -2 -30 0 -10 3 -4 5 12 5 17 0 24 -2 18 -5z m194 -10 c-4 -3 -7 0 -7 7 0 7 3 10 7 7 3 -4 3 -10 0 -14z m60 -20 c-4 -3 -7 0 -7 7 0 7 3 10 7 7 3 -4 3 -10 0 -14z m-257 -18 c11 -13 7 -15 -25 -15 -32 0 -36 2 -25 15 7 8 18 15 25 15 7 0 18 -7 25 -15z m200 11 c0 -2 -8 -10 -17 -17 -16 -13 -17 -12 -4 4 13 16 21 21 21 13z m105 -26 c3 -5 4 -10 1 -10 -3 0 -8 5 -11 10 -3 6 -4 10 -1 10 3 0 8 -4 11 -10z m-138 -47 c-3 -10 -5 -4 -5 12 0 17 2 24 5 18 2 -7 2 -21 0 -30z m88 27 c3 -5 4 -10 1 -10 -3 0 -8 5 -11 10 -3 6 -4 10 -1 10 3 0 8 -4 11 -10z m93 -35 c-3 -3 -9 2 -12 12 -6 14 -5 15 5 6 7 -7 10 -15 7 -18z m-27 -2 c13 -17 13 -17 -6 -3 -11 8 -22 16 -24 17 -2 2 0 3 6 3 6 0 17 -8 24 -17z m-396 -23 c4 -6 12 -7 18 -3 7 4 6 0 -2 -10 -7 -9 -23 -17 -35 -17 -16 0 -18 2 -7 9 7 5 10 14 7 20 -4 6 -3 11 3 11 5 0 13 -5 16 -10z m260 0 c3 -5 4 -10 1 -10 -3 0 -8 5 -11 10 -3 6 -4 10 -1 10 3 0 8 -4 11 -10z m-121 -15 c19 -14 18 -15 -11 -15 -18 0 -35 4 -38 10 -4 6 1 7 11 3 12 -4 15 -3 10 5 -10 16 5 14 28 -3z m-184 -5 c0 -5 -5 -10 -11 -10 -5 0 -7 5 -4 10 3 6 8 10 11 10 2 0 4 -4 4 -10z m335 0 c3 -5 4 -10 1 -10 -3 0 -8 5 -11 10 -3 6 -4 10 -1 10 3 0 8 -4 11 -10z m135 -20 c0 -5 -7 -7 -15 -4 -8 4 -12 10 -9 15 6 11 24 2 24 -11z"/>
<path d="M180 265 c0 -77 -8 -102 -25 -75 -9 14 -48 13 -63 -2 -24 -24 -14 -65 25 -97 72 -59 193 -78 301 -46 88 26 145 91 121 137 -9 16 -18 19 -45 15 l-34 -6 0 80 0 79 -140 0 -140 0 0 -85z"/>
<path d="M600 189 c0 -6 -11 -24 -25 -41 -32 -38 -32 -71 1 -97 33 -26 49 -26 74 -1 28 28 25 70 -7 113 -29 37 -43 46 -43 26z m50 -89 c0 -24 -16 -50 -29 -50 -4 0 -6 24 -6 54 0 51 1 54 18 39 9 -9 17 -28 17 -43z"/>
</g>
<g id="layer107" fill="#f85354" stroke="none">
<path d="M10 446 l0 -375 38 -4 37 -4 -42 -1 c-39 -2 -43 -5 -43 -27 l0 -25 123 1 c78 1 111 4 92 9 -51 13 -80 27 -112 54 -65 54 -65 123 1 147 l34 12 4 136 c3 121 6 140 27 174 27 44 18 67 -18 48 -27 -15 -29 8 -3 32 23 21 41 21 64 0 17 -15 21 -15 57 5 48 27 77 28 117 3 28 -17 33 -18 47 -4 19 19 42 12 57 -17 10 -20 10 -21 -8 -16 -29 10 -35 -8 -17 -50 11 -27 15 -74 15 -180 l0 -143 38 -3 c30 -2 38 -7 40 -25 5 -34 17 -28 30 16 14 45 16 221 3 221 -5 0 -12 7 -15 16 -3 8 -2 12 4 9 15 -9 12 13 -5 39 -14 21 -14 24 2 37 14 10 16 10 6 0 -12 -14 -7 -41 8 -41 5 0 9 9 9 21 0 11 5 17 10 14 6 -3 10 -21 10 -40 0 -29 3 -33 22 -30 12 3 26 9 32 15 15 15 26 12 26 -6 0 -8 -5 -12 -10 -9 -6 3 -17 -1 -25 -9 -9 -8 -23 -12 -31 -9 -14 5 -15 -8 -12 -108 3 -110 4 -116 35 -159 43 -61 47 -96 13 -130 -38 -38 -130 -18 -130 28 0 17 -8 15 -43 -10 -17 -12 -51 -28 -76 -34 -41 -11 -23 -13 157 -13 l202 -1 0 25 c0 22 -5 25 -37 27 -37 1 -37 1 -5 5 l32 4 0 375 0 374 -380 0 -380 0 0 -374z m628 145 c15 -13 20 -20 12 -16 -37 19 -50 39 -48 74 l1 36 4 -35 c2 -22 14 -44 31 -59z m-91 42 c-4 -3 -7 0 -7 7 0 7 3 10 7 7 3 -4 3 -10 0 -14z m3 -27 c0 -2 -8 -10 -17 -17 -16 -13 -17 -12 -4 4 13 16 21 21 21 13z m-16 -107 c4 -8 0 -5 -8 5 -9 11 -16 31 -15 45 1 24 2 24 8 -5 4 -17 11 -37 15 -45z m71 61 c3 -5 4 -10 1 -10 -3 0 -8 5 -11 10 -3 6 -4 10 -1 10 3 0 8 -4 11 -10z m95 -34 c0 -12 -5 -7 -19 24 -11 24 -11 24 3 6 9 -11 16 -24 16 -30z m-29 -3 c13 -17 13 -17 -6 -3 -11 8 -22 16 -24 17 -2 2 0 3 6 3 6 0 17 -8 24 -17z m-106 -43 c3 -5 4 -10 1 -10 -3 0 -8 5 -11 10 -3 6 -4 10 -1 10 3 0 8 -4 11 -10z"/>
<path d="M269 617 c-47 -32 -79 -83 -79 -127 0 -47 21 -66 82 -72 25 -3 60 -15 76 -27 29 -20 31 -20 36 -3 4 10 20 28 36 40 37 28 40 75 9 139 -35 72 -98 92 -160 50z m81 -22 c11 -13 7 -15 -25 -15 -32 0 -36 2 -25 15 7 8 18 15 25 15 7 0 18 -7 25 -15z m0 -55 c0 -5 -2 -10 -4 -10 -3 0 -8 5 -11 10 -3 6 -1 10 4 10 6 0 11 -4 11 -10z m-75 -40 c4 -6 11 -8 16 -5 5 4 9 2 9 -3 0 -6 -7 -13 -16 -16 -25 -10 -74 -7 -74 4 0 6 11 8 25 4 20 -5 24 -3 19 10 -7 17 11 22 21 6z m139 -15 c19 -14 18 -15 -11 -15 -18 0 -35 5 -39 12 -4 7 -3 8 4 4 7 -4 12 -2 12 3 0 15 11 13 34 -4z m-127 -42 c-4 -3 -10 -3 -14 0 -3 4 0 7 7 7 7 0 10 -3 7 -7z"/>
<path d="M180 264 c0 -78 -2 -85 -17 -79 -39 16 -51 16 -67 0 -25 -26 -19 -55 20 -91 48 -46 127 -68 219 -61 127 9 210 63 203 131 -3 29 -6 31 -40 30 l-38 -1 0 78 0 79 -140 0 -140 0 0 -86z"/>
<path d="M600 189 c0 -6 -11 -25 -26 -41 -31 -38 -29 -74 7 -101 23 -16 30 -17 50 -7 48 26 52 69 12 123 -29 37 -43 46 -43 26z m50 -94 c0 -28 -13 -45 -36 -45 -2 0 -4 25 -4 57 0 55 0 56 20 38 12 -11 20 -31 20 -50z"/>
</g>
<g id="layer108" fill="#f76364" stroke="none">
<path d="M12 448 l3 -373 35 -6 35 -6 -42 -2 c-39 -1 -43 -3 -43 -26 l0 -25 118 1 117 0 -47 15 c-55 17 -123 77 -133 117 -9 36 15 73 55 82 l30 7 0 127 c0 118 2 132 26 176 27 52 21 75 -15 56 -27 -15 -29 8 -3 32 23 21 36 21 66 2 22 -15 27 -14 57 4 42 26 75 26 115 2 28 -17 33 -18 47 -4 19 19 42 12 57 -17 11 -20 10 -21 -10 -15 -21 7 -22 5 -15 -31 4 -22 9 -107 12 -191 l4 -152 37 -3 c29 -2 37 -8 42 -28 l6 -25 14 25 c8 15 16 65 18 122 5 104 -1 120 -64 183 -30 30 -31 65 -3 96 l21 24 -16 -25 c-24 -37 -19 -62 19 -104 36 -39 47 -34 20 8 -14 21 -14 24 2 37 14 10 16 10 6 0 -12 -14 -7 -41 8 -41 5 0 9 9 9 21 0 11 5 17 10 14 6 -3 10 -23 10 -43 0 -28 3 -33 10 -22 7 11 10 11 10 2 0 -15 28 -3 56 25 17 17 18 17 11 0 -4 -10 -7 -23 -7 -28 0 -6 -5 -7 -10 -4 -6 3 -17 -1 -25 -9 -9 -8 -22 -13 -30 -10 -13 5 -15 -10 -15 -97 0 -104 0 -104 40 -169 43 -70 45 -100 8 -133 -40 -34 -128 -15 -128 29 0 19 -6 18 -40 -7 -16 -12 -50 -28 -77 -35 -44 -12 -30 -13 155 -13 l202 -1 0 25 c0 22 -5 25 -37 27 -37 1 -37 1 -5 5 l32 4 0 375 0 374 -380 0 -380 0 2 -372z m638 137 c35 -22 59 -59 47 -71 -2 -3 -7 6 -10 19 -4 13 -23 33 -47 46 -37 21 -40 25 -38 64 l1 42 4 -38 c4 -31 11 -42 43 -62z m-103 48 c-4 -3 -7 0 -7 7 0 7 3 10 7 7 3 -4 3 -10 0 -14z m127 -112 c7 -10 -63 24 -78 39 -6 6 8 1 31 -10 23 -11 44 -24 47 -29z"/>
<path d="M283 625 c-45 -19 -93 -89 -93 -135 0 -47 22 -66 84 -73 26 -2 61 -14 76 -26 27 -19 29 -20 34 -3 4 10 20 28 36 40 24 18 30 30 30 59 0 73 -61 154 -117 153 -10 -1 -32 -7 -50 -15z m61 -21 c28 -11 17 -24 -20 -24 -31 0 -35 2 -24 15 14 17 21 18 44 9z m6 -64 c0 -5 -2 -10 -4 -10 -3 0 -8 5 -11 10 -3 6 -1 10 4 10 6 0 11 -4 11 -10z m-75 -40 c4 -6 11 -8 16 -5 5 4 9 2 9 -3 0 -6 -7 -13 -16 -16 -25 -10 -74 -7 -74 4 0 6 11 8 25 4 20 -5 24 -3 19 10 -7 17 11 22 21 6z m139 -15 c19 -14 18 -15 -11 -15 -31 0 -48 11 -36 24 10 10 26 7 47 -9z m-127 -42 c-4 -3 -10 -3 -14 0 -3 4 0 7 7 7 7 0 10 -3 7 -7z"/>
<path d="M318 593 c7 -3 16 -2 19 1 4 3 -2 6 -13 5 -11 0 -14 -3 -6 -6z"/>
<path d="M180 264 c0 -78 -2 -85 -17 -79 -39 16 -51 16 -67 0 -25 -25 -19 -55 18 -90 90 -84 302 -84 392 1 57 53 39 120 -26 99 -19 -6 -20 -2 -20 74 l0 81 -140 0 -140 0 0 -86z"/>
<path d="M582 158 c-34 -45 -38 -59 -22 -88 17 -31 46 -43 73 -29 47 25 50 70 9 122 l-29 36 -31 -41z m66 -67 c-2 -25 -8 -37 -20 -39 -16 -3 -18 5 -18 54 0 57 0 57 20 39 15 -14 20 -29 18 -54z"/>
</g>
<g id="layer109" fill="#f7847a" stroke="none">
<path d="M20 446 l0 -375 33 -4 c28 -3 26 -4 -10 -5 -39 -2 -43 -5 -43 -27 l0 -25 118 0 117 1 -53 18 c-62 21 -118 71 -127 113 -9 38 17 77 55 85 l30 6 0 126 c0 113 3 131 24 176 26 53 21 74 -13 56 -17 -10 -21 -9 -21 4 0 8 9 24 20 35 20 20 42 18 71 -7 15 -12 21 -11 50 6 43 26 90 27 120 2 22 -17 26 -18 41 -4 21 19 54 9 61 -18 4 -16 2 -19 -14 -14 -15 5 -19 1 -19 -15 0 -12 4 -30 10 -40 5 -10 11 -85 12 -167 l3 -148 35 -5 c26 -4 36 -11 40 -30 l6 -25 13 23 c17 32 13 279 -6 308 -12 18 -11 23 2 34 23 19 57 -14 48 -48 -4 -16 -2 -23 5 -18 6 3 12 1 14 -5 4 -12 58 31 58 46 0 6 -4 3 -10 -5 -8 -12 -10 -12 -16 3 -3 10 -26 27 -51 39 -24 11 -42 23 -39 25 5 6 66 -25 89 -45 15 -13 17 -13 17 0 0 16 -33 49 -67 67 -19 10 -23 19 -21 54 l1 42 4 -38 c4 -31 11 -42 43 -62 41 -26 66 -79 55 -116 -4 -11 -9 -18 -12 -15 -3 3 -15 -1 -25 -9 -11 -7 -27 -11 -34 -8 -11 4 -14 -14 -14 -100 0 -103 1 -106 34 -154 18 -26 36 -58 40 -69 10 -33 -11 -73 -46 -89 -32 -14 -30 -14 50 -15 81 0 82 0 82 25 0 22 -4 25 -37 26 -37 1 -37 2 -8 8 l30 6 3 373 2 372 -375 0 -375 0 0 -374z m521 147 c-29 -36 -26 -64 9 -98 17 -16 30 -33 30 -39 0 -5 -16 5 -35 24 -38 37 -47 87 -20 110 8 7 15 24 15 39 1 23 2 24 11 8 8 -13 5 -24 -10 -44z"/>
<path d="M282 623 c-45 -22 -83 -74 -89 -123 -8 -55 15 -80 72 -80 28 0 54 -8 79 -25 26 -17 36 -20 36 -10 0 7 13 23 30 35 16 12 33 32 36 46 10 41 -15 111 -53 144 -38 34 -63 37 -111 13z m76 -30 c2 -9 -8 -13 -33 -13 -33 0 -36 2 -25 15 15 18 51 16 58 -2z m-8 -53 c0 -5 -2 -10 -4 -10 -3 0 -8 5 -11 10 -3 6 -1 10 4 10 6 0 11 -4 11 -10z m-58 -40 c5 0 8 -6 6 -12 -3 -7 -25 -15 -50 -18 -35 -4 -45 -3 -41 7 3 8 14 11 29 7 20 -5 23 -3 17 12 -5 14 -3 16 11 11 10 -4 22 -7 28 -7z m120 -11 c28 -15 22 -26 -12 -21 -37 5 -58 27 -28 29 12 1 29 -2 40 -8z m-125 -45 c-3 -3 -12 -4 -19 -1 -8 3 -5 6 6 6 11 1 17 -2 13 -5z m98 -12 c-3 -3 -11 0 -18 7 -9 10 -8 11 6 5 10 -3 15 -9 12 -12z"/>
<path d="M576 505 c4 -8 9 -15 13 -15 4 0 8 7 8 15 0 8 -6 15 -13 15 -8 0 -11 -6 -8 -15z"/>
<path d="M180 260 l0 -89 -29 17 c-28 16 -31 15 -50 -2 -41 -37 -18 -82 62 -123 102 -54 300 -29 357 45 38 47 17 99 -34 86 l-26 -6 0 81 0 81 -140 0 -140 0 0 -90z"/>
<path d="M581 153 c-36 -53 -37 -60 -15 -91 31 -45 104 -17 104 40 0 14 -13 42 -29 62 l-29 36 -31 -47z m71 -43 c8 -22 -9 -60 -27 -60 -12 0 -15 13 -15 61 l0 62 18 -24 c10 -13 21 -31 24 -39z"/>
<path d="M508 64 c-9 -9 -40 -25 -70 -35 l-53 -18 105 0 c83 0 100 3 83 11 -13 6 -23 14 -23 18 0 3 -6 14 -13 23 -11 16 -13 16 -29 1z"/>
</g>
<g id="layer110" fill="#f88e8e" stroke="none">
<path d="M20 446 l0 -375 38 -4 c34 -3 33 -4 -10 -5 -44 -2 -48 -4 -48 -27 l0 -25 113 1 112 0 -52 20 c-60 23 -123 86 -123 124 0 31 41 75 70 75 19 0 20 6 20 130 0 111 3 137 20 170 28 55 27 72 -5 60 -31 -12 -35 10 -6 39 21 21 52 19 72 -5 9 -11 17 -10 47 6 47 25 93 25 125 0 22 -17 26 -18 37 -5 17 21 47 19 60 -4 15 -28 13 -34 -11 -28 -19 5 -20 3 -14 -26 12 -62 24 -183 24 -266 1 -76 3 -83 20 -78 23 6 51 -10 51 -28 0 -20 16 -19 24 1 3 9 6 64 6 123 l0 108 -40 46 c-43 48 -53 94 -25 117 8 7 15 24 15 39 1 23 2 24 11 8 8 -13 5 -24 -10 -44 -29 -36 -26 -60 14 -104 19 -22 35 -34 35 -27 0 6 -8 20 -17 30 -15 17 -16 20 0 35 15 16 18 15 37 -2 14 -13 18 -25 13 -43 -4 -17 -2 -23 6 -18 6 4 11 3 11 -3 0 -14 27 -3 34 15 9 24 -3 40 -51 63 -25 12 -43 24 -40 27 9 9 85 -34 102 -58 l17 -23 -7 25 c-9 32 -33 58 -67 76 -24 13 -28 20 -26 57 l1 42 4 -38 c4 -31 11 -42 42 -61 21 -14 43 -38 50 -54 14 -33 12 -77 -4 -77 -5 -1 -19 -6 -30 -12 -11 -6 -24 -10 -30 -10 -6 1 -11 -39 -13 -99 -3 -101 -3 -101 32 -152 19 -28 38 -61 41 -74 7 -30 -14 -69 -45 -85 -22 -11 -16 -13 53 -13 76 0 77 0 77 25 0 22 -4 25 -37 26 -37 1 -37 2 -8 8 l30 6 3 373 2 372 -375 0 -375 0 0 -374z"/>
<path d="M305 633 c-57 -15 -115 -91 -115 -152 0 -37 31 -61 80 -61 19 0 50 -9 67 -20 l33 -20 40 40 c46 45 50 72 21 135 -29 64 -74 91 -126 78z m53 -35 c20 -20 14 -24 -28 -20 -33 3 -39 7 -29 18 14 17 41 18 57 2z m-8 -58 c0 -5 -2 -10 -4 -10 -3 0 -8 5 -11 10 -3 6 -1 10 4 10 6 0 11 -4 11 -10z m-50 -48 c0 -14 -9 -18 -63 -26 -36 -5 -37 -4 -25 17 7 14 13 17 16 9 2 -6 10 -12 18 -12 7 0 11 6 8 14 -4 10 2 14 20 12 14 0 26 -7 26 -14z m130 -21 c0 -14 -69 1 -75 16 -5 13 -3 14 10 3 9 -7 15 -9 14 -4 -4 21 2 23 26 8 14 -9 25 -19 25 -23z m-150 -31 c-20 -13 -33 -13 -25 0 3 6 14 10 23 10 15 0 15 -2 2 -10z m110 0 c13 -8 13 -10 -2 -10 -9 0 -20 5 -23 10 -8 13 5 13 25 0z"/>
<path d="M575 510 c4 -6 11 -8 16 -5 14 9 11 15 -7 15 -8 0 -12 -5 -9 -10z"/>
<path d="M180 260 l0 -89 -30 17 c-28 16 -30 16 -51 -5 -16 -16 -20 -28 -15 -47 8 -34 80 -80 147 -96 96 -23 245 12 289 68 38 47 17 99 -34 86 l-26 -6 0 81 0 81 -140 0 -140 0 0 -90z"/>
<path d="M581 154 c-36 -54 -37 -61 -15 -92 31 -44 104 -17 104 39 0 13 -13 41 -29 62 l-29 38 -31 -47z m79 -57 c0 -18 -21 -47 -35 -47 -12 0 -15 14 -15 62 l0 62 25 -34 c14 -19 25 -38 25 -43z"/>
<path d="M509 65 c-8 -9 -37 -24 -65 -35 l-49 -19 100 0 c70 0 93 3 77 9 -12 5 -27 21 -32 35 -11 29 -11 29 -31 10z"/>
</g>
<g id="layer111" fill="#f8a1a1" stroke="none">
<path d="M20 445 l0 -375 36 0 36 0 -21 34 c-12 18 -21 43 -21 55 0 28 43 71 70 71 19 0 20 6 20 130 0 111 3 137 20 170 28 54 26 64 -10 56 l-30 -6 14 29 c21 39 44 46 76 22 27 -19 27 -19 56 0 38 25 94 24 127 -1 22 -17 26 -18 37 -5 17 21 47 19 60 -4 17 -32 13 -43 -11 -30 -20 11 -21 9 -15 -22 20 -102 25 -144 25 -241 l1 -107 26 2 c17 1 30 -5 38 -18 6 -11 12 -22 14 -25 12 -18 22 42 22 136 l0 111 -41 47 c-45 51 -52 85 -24 116 11 12 16 29 13 45 -6 30 7 34 15 3 4 -13 -2 -32 -14 -49 -27 -38 -24 -56 16 -100 35 -39 49 -41 20 -3 -19 25 -19 40 1 48 24 9 56 -23 50 -49 -4 -16 0 -21 18 -23 25 -2 39 18 30 41 -2 7 -25 23 -49 35 -25 12 -45 26 -45 32 0 10 62 -22 93 -48 15 -13 17 -13 17 0 0 16 -33 49 -66 66 -26 14 -39 56 -25 80 8 14 10 10 11 -19 0 -30 6 -40 44 -66 34 -24 46 -40 52 -67 6 -37 0 -68 -13 -64 -4 1 -17 -3 -28 -9 -11 -6 -24 -12 -30 -12 -6 -1 -10 -43 -10 -104 0 -103 0 -104 38 -158 20 -30 37 -63 37 -74 0 -27 -27 -64 -54 -75 -14 -6 3 -9 57 -9 76 -1 77 -1 77 24 0 22 -5 25 -37 26 -31 2 -33 3 -10 6 l27 4 0 375 0 374 -370 0 -370 0 0 -375z"/>
<path d="M282 619 c-47 -24 -92 -88 -92 -132 0 -39 33 -67 78 -67 20 0 51 -9 69 -20 l32 -19 41 40 c22 22 40 47 40 57 0 37 -23 95 -48 122 -37 40 -68 45 -120 19z m78 -24 c17 -20 12 -23 -33 -17 -31 3 -35 7 -26 18 15 18 43 18 59 -1z m-10 -60 c0 -8 -2 -15 -4 -15 -2 0 -6 7 -10 15 -3 8 -1 15 4 15 6 0 10 -7 10 -15z m-50 -43 c0 -14 -9 -18 -63 -26 -36 -5 -37 -4 -25 17 7 14 13 17 16 9 5 -16 22 -15 22 2 0 9 10 13 25 12 14 0 25 -7 25 -14z m130 -23 c0 -10 -51 -6 -69 5 -6 4 -11 12 -11 18 0 6 6 5 16 -2 8 -8 14 -9 13 -4 -1 5 -1 12 0 17 1 10 51 -23 51 -34z m-150 -29 c-19 -12 -30 -12 -30 -1 0 10 31 20 40 14 2 -2 -2 -8 -10 -13z m110 0 c13 -8 13 -10 -2 -10 -9 0 -20 5 -23 10 -8 13 5 13 25 0z"/>
<path d="M323 593 c4 -3 10 -3 14 0 3 4 0 7 -7 7 -7 0 -10 -3 -7 -7z"/>
<path d="M180 261 l0 -89 -32 15 c-30 15 -32 15 -50 -7 -18 -23 -17 -51 4 -77 6 -7 35 -25 67 -40 49 -24 67 -28 141 -27 96 1 162 24 205 70 45 48 23 110 -30 86 l-25 -12 0 85 0 85 -140 0 -140 0 0 -89z"/>
<path d="M581 153 c-21 -32 -29 -53 -25 -67 9 -29 24 -46 40 -46 11 0 14 17 14 67 l0 67 25 -34 c30 -41 31 -54 5 -80 -11 -11 -16 -20 -12 -20 15 0 42 36 42 54 0 20 -15 51 -40 84 l-18 22 -31 -47z"/>
<path d="M499 58 c-14 -10 -43 -25 -65 -33 -38 -14 -37 -14 61 -14 68 0 93 3 78 9 -12 5 -28 20 -35 33 l-13 25 -26 -20z"/>
<path d="M50 61 c-37 -5 -46 -10 -48 -28 -3 -23 -2 -23 110 -23 106 1 111 2 76 14 -21 8 -49 21 -63 30 -13 9 -26 15 -27 14 -2 0 -23 -4 -48 -7z"/>
</g>
<g id="layer112" fill="#e3babe" stroke="none">
<path d="M283 619 c-47 -23 -81 -70 -89 -121 -8 -49 13 -70 80 -79 32 -4 66 -15 76 -24 16 -15 20 -13 59 25 22 22 41 48 41 58 0 37 -23 95 -48 122 -37 40 -68 45 -119 19z m84 -35 c2 -6 -15 -10 -37 -9 -45 0 -46 1 -23 27 14 16 19 16 37 5 11 -8 21 -18 23 -23z m-17 -49 c0 -8 -4 -15 -8 -15 -5 0 -9 7 -9 15 0 8 4 15 9 15 4 0 8 -7 8 -15z m-50 -45 c-6 -11 -25 -20 -52 -22 -52 -6 -57 -3 -35 19 11 11 17 13 17 5 0 -7 5 -12 10 -12 6 0 10 6 10 14 0 10 10 14 30 14 24 -1 28 -4 20 -18z m130 -17 c0 -7 -9 -13 -21 -13 -26 0 -59 17 -59 31 0 6 4 8 9 4 5 -3 12 -1 15 4 8 12 56 -10 56 -26z m-142 -29 c-11 -11 -23 -14 -35 -9 -16 7 -15 9 7 15 40 12 45 11 28 -6z m102 -4 c13 -8 13 -10 -2 -10 -9 0 -20 5 -23 10 -8 13 5 13 25 0z"/>
<path d="M50 61 c-37 -5 -46 -10 -48 -28 -3 -23 -2 -23 104 -23 l107 0 -59 30 c-32 16 -59 29 -59 28 0 0 -20 -4 -45 -7z"/>
</g>
<g id="layer113" fill="#f9b2b1" stroke="none">
<path d="M20 445 l0 -375 36 0 36 0 -21 34 c-37 59 -23 100 42 125 l27 11 0 125 c0 106 3 132 20 165 28 54 26 63 -10 55 -26 -6 -29 -4 -23 12 9 25 34 53 48 53 7 0 23 -9 37 -19 24 -19 25 -19 54 0 37 24 95 25 125 0 19 -16 25 -16 37 -5 19 20 50 17 62 -5 15 -30 12 -40 -11 -34 -20 6 -21 3 -15 -23 4 -16 11 -47 16 -69 5 -22 9 -93 10 -158 l0 -117 24 6 c19 4 28 0 42 -21 16 -25 19 -26 25 -9 4 11 8 67 8 125 l1 105 -45 53 c-25 29 -45 58 -45 65 0 8 9 25 21 40 14 18 19 34 15 51 -4 14 -2 25 3 25 20 0 20 -45 1 -72 -28 -38 -25 -55 15 -99 36 -40 47 -41 19 -1 -9 13 -13 29 -10 37 13 36 72 -1 62 -39 -4 -17 0 -22 18 -24 25 -2 39 18 30 41 -2 7 -25 23 -49 35 -25 12 -45 26 -45 31 0 11 92 -36 102 -53 11 -17 10 2 -2 24 -5 10 -26 28 -45 40 -38 24 -53 58 -36 87 9 15 10 12 11 -19 0 -31 5 -40 28 -52 46 -24 65 -53 66 -98 1 -24 -3 -43 -9 -44 -5 -1 -25 -8 -43 -15 l-34 -14 4 -100 c3 -97 4 -102 41 -154 45 -64 47 -93 8 -132 l-29 -29 69 0 c67 0 69 1 69 25 0 22 -5 25 -37 26 -31 2 -33 3 -10 6 l27 4 0 375 0 374 -370 0 -370 0 0 -375z"/>
<path d="M283 619 c-47 -23 -81 -70 -89 -121 -8 -49 13 -70 80 -79 32 -4 66 -15 76 -24 16 -15 20 -13 59 25 22 22 41 48 41 58 0 37 -23 95 -48 122 -37 40 -68 45 -119 19z m84 -35 c2 -6 -15 -10 -37 -9 -45 0 -46 1 -23 27 14 16 19 16 37 5 11 -8 21 -18 23 -23z m-17 -49 c0 -8 -4 -15 -8 -15 -5 0 -9 7 -9 15 0 8 4 15 9 15 4 0 8 -7 8 -15z m-50 -45 c-6 -11 -25 -20 -52 -22 -52 -6 -57 -3 -35 19 11 11 17 13 17 5 0 -7 5 -12 10 -12 6 0 10 6 10 14 0 10 10 14 30 14 24 -1 28 -4 20 -18z m130 -17 c0 -7 -9 -13 -21 -13 -26 0 -59 17 -59 31 0 6 4 8 9 4 5 -3 12 -1 15 4 8 12 56 -10 56 -26z m-140 -28 c-14 -16 -50 -21 -50 -6 0 8 15 14 54 20 5 0 3 -6 -4 -14z m100 -5 c13 -8 13 -10 -2 -10 -9 0 -20 5 -23 10 -8 13 5 13 25 0z"/>
<path d="M180 260 l0 -91 -27 14 c-32 17 -49 13 -63 -14 -26 -47 50 -110 153 -130 109 -20 252 22 283 83 27 52 7 86 -40 68 l-26 -10 0 85 0 85 -140 0 -140 0 0 -90z"/>
<path d="M586 159 c-32 -38 -36 -93 -7 -109 11 -5 22 -10 25 -10 3 0 6 30 8 68 l3 67 24 -39 c24 -38 24 -40 8 -70 l-17 -31 20 24 c11 13 20 30 20 39 0 14 -47 92 -55 92 -2 0 -15 -14 -29 -31z"/>
<path d="M505 60 c-10 -11 -39 -27 -64 -35 l-46 -14 95 0 c52 1 89 3 82 6 -8 3 -22 18 -31 34 -18 29 -18 29 -36 9z"/>
<path d="M53 63 c-38 -4 -43 -7 -43 -29 0 -24 1 -24 101 -24 l102 0 -59 30 c-32 16 -59 29 -59 28 0 -1 -19 -3 -42 -5z"/>
</g>
<g id="layer114" fill="#f8c4bc" stroke="none">
<path d="M20 445 l0 -375 35 0 c19 0 35 -4 35 -9 0 -4 -18 -7 -40 -5 -36 2 -40 0 -40 -22 0 -24 0 -24 103 -23 99 0 101 1 64 14 -53 20 -95 51 -112 85 -30 57 -14 96 48 119 l27 11 0 127 c0 109 3 134 20 166 28 51 26 60 -10 52 -26 -6 -29 -4 -23 12 18 52 57 67 87 34 18 -19 18 -19 49 0 42 25 97 24 130 -1 21 -17 26 -18 31 -5 8 22 53 19 66 -4 15 -30 12 -40 -11 -34 -24 7 -24 9 0 -82 6 -22 11 -95 11 -161 l0 -121 24 4 c18 4 29 -2 42 -22 16 -25 19 -26 25 -9 4 11 8 67 8 125 l1 105 -45 53 c-25 29 -45 57 -45 63 0 6 9 26 21 44 12 21 18 41 14 54 -3 11 -2 20 4 20 22 0 23 -42 2 -71 -30 -40 -26 -60 15 -100 l37 -34 -19 32 c-24 42 -9 63 32 44 22 -10 25 -16 21 -39 -5 -23 -2 -28 16 -29 53 -4 38 46 -23 77 -22 11 -40 24 -40 29 0 11 92 -36 102 -53 6 -8 8 -7 8 2 0 12 -10 23 -77 82 -24 20 -31 64 -13 75 6 4 10 -8 10 -29 0 -29 5 -38 29 -51 45 -23 71 -62 71 -107 0 -25 -4 -38 -12 -37 -7 1 -28 -5 -46 -12 l-34 -14 4 -100 c3 -97 4 -102 41 -154 45 -64 47 -93 8 -132 l-29 -29 69 0 c67 0 70 1 67 23 -2 18 -8 21 -35 19 -17 -2 -34 1 -38 7 -4 7 5 11 24 11 l31 0 0 375 0 375 -370 0 -370 0 0 -375z"/>
<path d="M251 594 c-66 -59 -79 -144 -25 -164 14 -6 40 -10 57 -10 18 0 45 -8 60 -18 l28 -19 37 35 c32 31 37 41 35 78 -5 123 -107 175 -192 98z m116 -11 c3 -7 -12 -10 -36 -10 -45 2 -49 8 -25 32 14 14 19 14 37 2 12 -7 23 -19 24 -24z m-19 -46 c2 -9 -2 -17 -9 -17 -7 0 -9 3 -6 7 4 3 1 13 -6 21 -10 13 -9 14 3 10 8 -2 16 -12 18 -21z m-38 -37 c0 -15 -26 -27 -67 -33 -24 -3 -43 -2 -43 2 0 14 23 29 36 24 8 -3 14 0 14 5 0 6 14 10 30 10 17 -1 30 -4 30 -8z m95 -2 c30 -14 33 -38 4 -38 -26 0 -59 17 -59 31 0 6 5 7 10 4 6 -3 10 -1 10 4 0 14 3 14 35 -1z m-115 -53 c-14 -16 -50 -21 -50 -6 0 8 15 14 54 20 5 0 3 -6 -4 -14z m115 -5 c-3 -5 -12 -10 -20 -10 -8 0 -17 5 -20 10 -4 6 5 10 20 10 15 0 24 -4 20 -10z"/>
<path d="M580 509 c0 -5 5 -7 10 -4 6 3 10 8 10 11 0 2 -4 4 -10 4 -5 0 -10 -5 -10 -11z"/>
<path d="M180 260 c0 -87 -1 -90 -19 -80 -50 26 -94 -7 -70 -52 30 -56 109 -90 210 -90 124 -1 219 43 235 109 9 34 -17 56 -52 43 l-24 -10 0 85 0 85 -140 0 -140 0 0 -90z"/>
<path d="M586 157 c-32 -41 -35 -92 -7 -107 11 -5 22 -10 25 -10 3 0 6 30 6 68 l1 67 24 -30 c13 -16 26 -38 28 -50 4 -19 4 -19 6 1 0 12 -12 38 -28 58 l-29 37 -26 -34z"/>
<path d="M500 55 c-8 -8 -33 -21 -55 -29 l-40 -15 87 0 86 -1 -28 30 c-33 35 -31 34 -50 15z"/>
<path d="M639 53 c-13 -16 -12 -17 4 -4 9 7 17 15 17 17 0 8 -8 3 -21 -13z"/>
</g>
<g id="layer115" fill="#fad2d1" stroke="none">
<path d="M20 447 l0 -372 32 0 c17 0 33 -6 35 -12 3 -9 -8 -13 -36 -13 -34 0 -41 -3 -41 -20 0 -19 6 -20 103 -19 99 0 101 1 64 14 -78 29 -127 82 -127 138 0 26 35 63 65 69 19 3 20 13 25 143 4 112 9 145 23 165 26 38 22 53 -13 45 -35 -8 -38 2 -9 39 24 31 49 33 73 7 18 -19 18 -19 49 0 39 23 95 25 126 3 17 -12 26 -13 34 -5 26 26 77 6 77 -30 0 -12 -6 -16 -20 -12 -24 6 -25 -1 -5 -57 10 -30 15 -83 15 -175 l0 -132 24 4 c16 3 29 -3 43 -21 l21 -26 6 23 c3 12 6 67 6 123 l0 100 -45 53 c-25 29 -45 58 -45 64 0 7 9 27 20 45 12 20 18 42 15 53 -4 10 -2 19 4 19 6 0 14 -11 17 -26 5 -18 0 -31 -16 -49 -28 -30 -22 -60 21 -100 l32 -30 -19 32 c-24 42 -9 63 32 44 20 -9 25 -17 22 -36 -4 -18 0 -26 15 -31 24 -8 39 13 26 38 -5 10 -28 27 -49 38 -22 11 -40 25 -40 30 0 5 23 -2 50 -16 28 -14 50 -30 50 -36 0 -6 3 -9 6 -6 11 11 -15 46 -50 66 -39 23 -54 61 -38 95 9 19 11 17 11 -20 1 -36 5 -45 30 -58 45 -23 71 -62 71 -107 0 -32 -3 -39 -15 -34 -8 3 -15 1 -15 -4 0 -4 -13 -11 -30 -15 l-30 -7 0 -81 c1 -90 13 -132 53 -191 15 -21 27 -47 27 -57 0 -29 -21 -66 -44 -77 -17 -8 -6 -11 52 -11 65 -1 72 1 72 18 0 15 -8 21 -35 23 -41 3 -48 21 -10 26 l25 3 0 370 0 369 -370 0 -370 0 0 -373z"/>
<path d="M250 594 c-48 -43 -69 -101 -52 -139 11 -24 37 -34 44 -17 2 5 16 12 31 16 33 8 28 -10 -7 -24 -18 -7 -16 -9 14 -9 19 -1 48 -9 63 -20 l28 -18 34 34 c28 28 35 43 35 74 0 127 -102 182 -190 103z m102 9 c27 -24 22 -31 -22 -30 -42 2 -53 19 -22 36 23 14 23 14 44 -6z m-4 -66 c5 -24 -15 -21 -21 4 -3 13 -1 19 6 16 7 -2 13 -11 15 -20z m-38 -37 c0 -15 -26 -27 -67 -33 -24 -3 -43 -2 -43 2 0 15 23 29 38 24 10 -4 13 -2 8 5 -5 8 4 11 29 10 19 -1 35 -4 35 -8z m95 -2 c30 -14 33 -38 4 -38 -26 0 -59 17 -59 31 0 6 5 7 10 4 6 -3 10 -1 10 4 0 14 3 14 35 -1z m0 -58 c-3 -5 -12 -10 -20 -10 -8 0 -17 5 -20 10 -4 6 5 10 20 10 15 0 24 -4 20 -10z"/>
<path d="M180 260 c0 -87 -1 -90 -19 -80 -50 26 -87 -1 -69 -51 7 -20 27 -37 70 -59 52 -26 72 -30 138 -30 104 0 170 21 210 66 43 49 38 79 -13 79 l-37 0 0 83 0 82 -140 0 -140 0 0 -90z"/>
<path d="M586 157 c-29 -38 -33 -78 -10 -101 27 -28 34 -18 34 52 l1 67 24 -30 c13 -16 26 -38 28 -50 4 -19 4 -19 6 1 0 12 -12 38 -28 58 l-29 37 -26 -34z"/>
<path d="M503 55 c-13 -9 -40 -22 -60 -30 -37 -13 -36 -14 51 -14 74 -1 87 1 73 11 -9 7 -22 21 -29 31 -12 16 -15 16 -35 2z"/>
<path d="M644 58 c-4 -7 -3 -8 4 -4 7 4 12 9 12 12 0 8 -9 4 -16 -8z"/>
</g>
<g id="layer116" fill="#f5e2e6" stroke="none">
<path d="M20 451 l0 -370 32 -3 c49 -5 48 -28 -1 -28 -34 0 -41 -3 -41 -20 0 -19 7 -20 97 -20 l97 0 -52 26 c-113 56 -139 164 -47 194 l35 12 0 130 c0 115 3 135 22 169 25 44 19 57 -17 41 -32 -15 -34 4 -4 42 24 31 49 33 73 8 16 -18 18 -18 66 6 l50 24 41 -20 c37 -18 44 -19 63 -7 19 13 25 13 44 -1 29 -20 30 -58 2 -49 -24 8 -25 -1 -5 -48 11 -26 15 -74 15 -172 l0 -135 25 0 c13 0 33 -9 43 -20 l19 -21 7 23 c3 13 6 64 6 113 0 96 -3 104 -62 173 -33 39 -35 55 -7 93 13 18 18 36 14 49 -4 11 -2 20 4 20 23 0 23 -48 1 -78 -26 -35 -22 -57 21 -98 l31 -29 -19 32 c-14 25 -15 35 -6 44 20 20 63 -5 63 -36 0 -18 5 -25 19 -25 11 0 22 4 25 8 7 12 -22 52 -38 52 -18 0 -63 37 -55 45 4 3 30 -8 58 -24 41 -25 50 -27 42 -12 -6 10 -26 28 -45 39 -34 20 -51 54 -44 87 5 26 22 12 19 -16 -1 -16 5 -33 15 -40 67 -55 84 -78 84 -116 0 -38 -2 -40 -40 -52 l-40 -12 0 -103 c0 -101 0 -103 35 -152 19 -27 35 -61 35 -75 0 -23 3 -25 30 -21 l30 4 0 369 0 369 -370 0 -370 0 0 -369z"/>
<path d="M245 586 c-27 -27 -45 -57 -49 -80 -8 -40 6 -76 30 -76 8 0 12 5 9 10 -3 6 3 10 14 10 10 0 28 3 38 7 17 6 17 5 -1 -15 -19 -22 -19 -22 5 -22 13 0 37 -8 53 -18 29 -17 29 -17 62 16 42 42 42 50 4 44 -33 -5 -60 12 -60 37 0 13 2 13 9 2 7 -11 9 -11 13 0 4 11 11 11 37 -4 l31 -18 0 26 c0 36 -27 92 -54 110 -11 8 -38 15 -60 15 -34 0 -46 -7 -81 -44z m107 17 c27 -25 22 -32 -22 -30 -43 1 -53 18 -22 36 23 14 23 14 44 -6z m-3 -57 c9 -11 9 -16 0 -21 -10 -7 -28 10 -29 28 0 12 17 8 29 -7z m-39 -46 c0 -15 -26 -27 -67 -33 -24 -3 -43 -2 -43 2 0 15 23 29 38 24 10 -4 13 -2 8 5 -5 8 4 11 29 10 19 -1 35 -4 35 -8z m100 -60 c0 -5 -11 -10 -24 -10 -14 0 -28 5 -31 10 -4 6 7 10 24 10 17 0 31 -4 31 -10z"/>
<path d="M180 260 c0 -88 -5 -101 -27 -79 -6 6 -21 9 -34 7 -18 -2 -25 -10 -27 -32 -5 -37 25 -68 91 -96 68 -30 210 -25 274 8 49 26 85 68 81 96 -2 17 -11 21 -43 22 l-40 0 0 80 0 79 -138 3 -137 3 0 -91z"/>
<path d="M587 154 c-15 -18 -27 -44 -27 -57 0 -22 27 -57 43 -57 4 0 7 30 7 68 l1 67 24 -28 c32 -36 33 -24 2 13 l-24 28 -26 -34z"/>
<path d="M661 94 c0 -11 3 -14 6 -6 3 7 2 16 -1 19 -3 4 -6 -2 -5 -13z"/>
<path d="M471 38 l-53 -28 78 0 77 0 -24 28 c-13 15 -24 27 -24 28 0 0 -24 -12 -54 -28z"/>
<path d="M671 35 l-23 -25 66 0 c59 0 66 2 66 20 0 15 -7 20 -29 20 -16 0 -35 2 -43 5 -7 3 -24 -6 -37 -20z"/>
</g>
<g id="layer117" fill="#fcfdfc" stroke="none">
<path d="M20 451 l0 -370 32 -3 c49 -5 48 -28 -1 -28 -30 0 -41 -4 -41 -15 0 -12 16 -15 83 -15 l82 1 -36 19 c-60 31 -91 76 -87 124 3 36 7 43 41 59 l37 19 0 116 c0 104 3 123 25 171 27 58 26 72 -6 52 -28 -17 -34 -8 -19 29 16 38 53 49 81 24 18 -16 22 -17 47 -2 47 28 84 30 124 9 31 -18 38 -18 48 -6 17 20 33 19 53 -3 24 -27 22 -55 -3 -47 -24 8 -24 5 -5 -42 11 -26 15 -73 15 -174 l0 -139 30 0 c20 0 33 -7 42 -22 l12 -23 7 25 c4 14 7 65 8 113 1 94 -7 116 -61 169 -33 31 -36 65 -9 100 13 16 18 33 14 48 -4 17 -2 21 8 18 23 -8 22 -45 -3 -78 -21 -29 -21 -33 -8 -57 19 -34 40 -42 33 -13 -4 16 0 23 16 27 17 4 19 8 10 19 -22 27 -1 25 50 -5 40 -24 48 -26 39 -11 -7 10 -27 27 -46 37 -18 10 -35 28 -38 39 -8 31 -1 67 13 71 8 3 10 -6 6 -30 -5 -32 -2 -37 34 -61 22 -15 45 -37 52 -50 15 -28 11 -101 -6 -102 -7 -1 -15 -3 -18 -4 -6 -3 -22 -7 -35 -9 -6 0 -10 -43 -10 -104 0 -102 0 -104 35 -153 19 -27 35 -61 35 -75 0 -23 3 -25 30 -21 l30 4 0 369 0 369 -370 0 -370 0 0 -369z"/>
<path d="M270 607 c-37 -24 -64 -66 -74 -112 -6 -27 -5 -28 8 -12 9 11 20 15 31 10 12 -4 16 -3 11 5 -9 15 13 27 26 14 6 -6 17 -8 24 -5 16 6 19 -23 3 -32 -6 -4 -26 -7 -45 -7 -19 0 -37 -4 -40 -9 -7 -12 7 -34 15 -22 9 14 71 25 71 13 0 -6 -6 -10 -12 -10 -7 0 10 -13 37 -28 29 -16 52 -23 54 -17 2 5 18 22 35 37 l31 27 -37 1 c-28 0 -41 6 -56 28 -37 52 -39 85 -3 63 12 -8 12 -12 2 -25 -14 -17 -6 -21 27 -17 8 1 24 -5 38 -14 23 -15 24 -15 24 12 0 30 -32 90 -58 111 -25 19 -76 14 -112 -11z m82 -4 c28 -25 22 -33 -27 -33 -49 0 -53 4 -28 32 20 22 31 23 55 1z m60 -165 c-12 -12 -54 -7 -59 8 -2 6 10 8 33 6 23 -3 32 -8 26 -14z"/>
<path d="M618 529 c6 -7 12 -23 12 -36 0 -16 6 -23 20 -23 13 0 20 7 20 19 0 20 -14 34 -45 45 -16 6 -18 5 -7 -5z"/>
<path d="M580 510 c0 -7 3 -10 7 -7 3 4 3 10 0 14 -4 3 -7 0 -7 -7z"/>
<path d="M186 250 c0 -50 -2 -90 -6 -90 -4 0 -13 7 -20 16 -8 8 -25 14 -39 12 -33 -4 -41 -50 -14 -80 92 -102 381 -83 423 28 16 41 2 57 -41 50 l-39 -6 0 80 0 80 -132 0 -133 0 1 -90z"/>
<path d="M636 148 c10 -14 21 -24 23 -22 3 3 -6 15 -18 27 l-24 22 19 -27z"/>
<path d="M575 136 c-21 -31 -16 -65 11 -82 20 -14 20 -13 18 42 -1 30 -4 58 -7 61 -3 2 -13 -7 -22 -21z"/>
<path d="M660 100 c0 -7 3 -10 7 -7 3 4 3 10 0 14 -4 3 -7 0 -7 -7z"/>
<path d="M485 44 l-40 -24 59 0 59 0 -19 23 c-10 12 -19 22 -19 23 0 0 -18 -10 -40 -22z"/>
<path d="M681 38 c-10 -16 -6 -18 44 -18 42 0 53 3 49 14 -9 22 -80 25 -93 4z"/>
</g>


</svg>