<!DOCTYPE svg PUBLIC "-//W3C//DTD SVG 20010904//EN" "http://www.w3.org/TR/2001/REC-SVG-20010904/DTD/svg10.dtd">
<svg version="1.0" xmlns="http://www.w3.org/2000/svg" width="308px" height="109px" viewBox="0 0 3080 1090" preserveAspectRatio="xMidYMid meet">
<g id="layer101" fill="#0e1a01" stroke="none">
<path d="M0 545 l0 -545 1540 0 1540 0 0 545 0 545 -1540 0 -1540 0 0 -545z"/>
</g>
<g id="layer102" fill="#f81312" stroke="none">
<path d="M2260 455 l0 -415 390 0 390 0 0 415 0 415 -390 0 -390 0 0 -415z"/>
<path d="M1022 288 c-19 -19 -15 -37 24 -112 36 -69 36 -70 8 -41 -15 17 -48 55 -72 85 -25 30 -46 57 -48 59 -2 2 -10 -1 -18 -8 -12 -10 -8 -23 25 -83 54 -98 52 -107 -17 -68 -31 17 -58 29 -61 26 -13 -12 10 -57 39 -77 17 -13 28 -18 24 -11 -10 16 5 15 28 -3 26 -20 65 -19 73 1 3 8 0 27 -8 42 -7 15 -15 32 -18 37 -2 6 19 -12 48 -38 88 -82 120 -44 51 61 -63 99 -54 120 21 46 29 -28 54 -45 65 -42 16 3 14 8 -14 36 -18 18 -32 35 -32 37 0 15 27 -1 69 -40 26 -25 51 -45 55 -45 14 0 5 38 -14 55 -20 18 -27 45 -12 45 5 0 28 -23 52 -51 34 -40 47 -50 69 -47 37 4 33 29 -12 57 -23 15 -34 28 -28 34 15 15 75 -21 92 -56 9 -19 25 -33 37 -35 29 -4 28 10 -3 46 -14 17 -25 35 -25 42 0 21 24 4 55 -40 17 -24 36 -45 43 -48 15 -5 16 30 1 45 -6 6 -9 17 -7 24 3 8 17 1 39 -19 40 -35 86 -55 106 -48 17 7 17 37 -2 62 -8 10 -15 22 -15 27 0 13 23 8 42 -10 10 -9 18 -11 18 -5 0 16 -67 65 -80 57 -5 -3 -10 -13 -10 -21 0 -12 -4 -12 -26 3 -25 16 -27 16 -43 -3 -20 -24 -53 -24 -80 0 -25 23 -55 17 -59 -12 l-3 -23 -30 26 c-35 29 -74 33 -88 8 -9 -17 -11 -16 -35 6 -26 25 -56 23 -56 -4 0 -14 -3 -14 -25 1 -26 17 -45 12 -45 -13 0 -14 -4 -13 -22 4 -37 33 -63 44 -76 31z m584 -69 c23 -24 25 -29 9 -23 -24 9 -55 34 -55 46 0 16 16 8 46 -23z m-256 -34 c7 -8 8 -15 2 -15 -5 0 -15 7 -22 15 -7 8 -8 15 -2 15 5 0 15 -7 22 -15z"/>
</g>
<g id="layer103" fill="#fa7c85" stroke="none">
<path d="M2272 478 l3 -373 35 -6 35 -6 -42 -2 c-39 -1 -43 -3 -43 -26 l0 -25 118 1 117 0 -47 15 c-55 17 -123 77 -133 117 -9 36 15 73 55 82 l30 7 0 127 c0 118 2 132 26 176 27 52 21 75 -15 56 -27 -15 -29 8 -3 32 23 21 41 21 64 0 17 -15 21 -15 57 5 48 27 77 28 117 3 28 -17 33 -18 47 -4 19 19 42 12 57 -18 11 -20 10 -21 -9 -16 -29 7 -31 -1 -15 -48 10 -28 15 -84 15 -182 l0 -142 36 -3 c30 -2 38 -8 43 -28 l6 -25 14 25 c8 15 16 65 18 121 4 82 1 101 -14 125 -11 15 -13 25 -6 21 17 -11 15 9 -3 37 -14 21 -14 24 2 37 14 10 16 10 6 0 -12 -14 -7 -41 8 -41 5 0 9 9 9 21 0 11 5 17 10 14 6 -3 10 -23 10 -43 0 -28 3 -33 10 -22 8 12 10 12 10 1 0 -11 5 -10 25 3 30 20 35 20 35 0 0 -8 -5 -12 -10 -9 -6 3 -17 -1 -25 -9 -9 -8 -22 -13 -30 -10 -13 5 -15 -10 -15 -97 0 -104 0 -104 40 -169 43 -70 45 -100 8 -133 -38 -33 -128 -17 -128 23 0 25 -4 25 -40 -1 -16 -12 -50 -28 -77 -35 -44 -12 -30 -13 155 -13 l202 -1 0 25 c0 22 -5 25 -37 27 -37 1 -37 1 -5 5 l32 4 0 375 0 374 -380 0 -381 0 3 -372z m634 140 c33 -20 61 -55 51 -65 -3 -2 -8 5 -12 16 -3 12 -21 29 -38 38 -41 20 -47 30 -45 73 l1 35 4 -38 c4 -31 11 -42 39 -59z m-99 40 c-3 -8 -6 -5 -6 6 -1 11 2 17 5 13 3 -3 4 -12 1 -19z m-11 -40 c-23 -33 -19 -64 12 -94 23 -22 24 -24 5 -15 -25 13 -43 41 -43 68 0 18 26 63 36 63 3 0 -2 -10 -10 -22z m138 -67 c7 -10 -63 24 -78 39 -6 6 8 1 31 -10 23 -11 44 -24 47 -29z"/>
<path d="M2543 655 c-45 -19 -93 -89 -93 -135 0 -47 22 -66 84 -73 26 -2 61 -14 76 -26 27 -19 29 -20 34 -3 4 10 20 28 36 40 24 18 30 30 30 59 0 73 -61 154 -117 153 -10 -1 -32 -7 -50 -15z m61 -21 c28 -11 17 -24 -20 -24 -31 0 -35 2 -24 15 14 17 21 18 44 9z m6 -64 c0 -5 -2 -10 -4 -10 -3 0 -8 5 -11 10 -3 6 -1 10 4 10 6 0 11 -4 11 -10z m-75 -40 c4 -6 11 -8 16 -5 5 4 9 2 9 -3 0 -6 -7 -13 -16 -16 -25 -10 -74 -7 -74 4 0 6 11 8 25 4 20 -5 24 -3 19 10 -7 17 11 22 21 6z m139 -15 c19 -14 18 -15 -11 -15 -31 0 -48 11 -36 24 10 10 26 7 47 -9z m-127 -42 c-4 -3 -10 -3 -14 0 -3 4 0 7 7 7 7 0 10 -3 7 -7z"/>
<path d="M2578 623 c7 -3 16 -2 19 1 4 3 -2 6 -13 5 -11 0 -14 -3 -6 -6z"/>
<path d="M2440 295 c0 -47 -2 -85 -5 -85 -2 0 -16 5 -29 12 -22 9 -29 8 -46 -7 -29 -26 -25 -53 15 -91 129 -121 464 -52 420 86 -6 19 -12 21 -41 15 l-34 -6 0 81 0 80 -140 0 -140 0 0 -85z"/>
<path d="M2841 187 c-38 -49 -38 -81 0 -110 23 -16 30 -17 50 -7 13 7 27 18 31 24 16 23 7 65 -20 99 l-29 36 -32 -42z m67 -66 c-2 -25 -8 -37 -20 -39 -16 -3 -18 5 -18 54 0 57 0 57 20 39 15 -14 20 -29 18 -54z"/>
</g>
<g id="layer104" fill="#e7d6b4" stroke="none">
<path d="M1181 1036 c-17 -43 7 -110 79 -216 67 -100 139 -220 132 -220 -11 0 -92 84 -92 96 0 19 -125 133 -174 158 -59 32 -80 32 -107 5 -17 -17 -20 -30 -16 -63 3 -22 8 -50 13 -61 4 -11 -23 8 -59 43 -60 57 -70 63 -103 60 -110 -9 -97 -188 22 -303 44 -44 49 -46 97 -43 28 2 52 8 54 14 3 10 -75 97 -134 146 -32 27 -52 72 -39 86 15 14 97 -43 214 -148 68 -61 132 -115 144 -121 26 -14 41 0 41 41 0 22 -13 44 -55 88 -109 114 -121 200 -21 145 26 -15 192 -187 335 -349 21 -23 49 -45 63 -48 26 -7 65 8 65 24 0 5 -28 41 -62 79 -35 38 -72 84 -82 102 l-20 33 35 -23 c19 -12 62 -36 97 -53 71 -34 108 -32 118 7 11 43 -16 95 -88 171 l-71 74 32 0 c38 0 81 -21 139 -68 23 -19 42 -30 42 -26 0 5 13 -14 30 -42 69 -122 225 -199 298 -148 26 18 28 44 7 84 -20 39 -66 73 -158 115 -81 38 -91 51 -57 85 38 38 102 21 199 -54 54 -42 59 -44 64 -25 7 24 -78 109 -151 151 -119 69 -205 40 -230 -76 l-7 -36 -45 36 c-91 73 -207 111 -267 87 -12 -4 -43 -7 -70 -5 l-48 4 -45 86 c-70 134 -100 161 -119 108z m376 -354 c45 -55 54 -82 28 -82 -39 0 -164 108 -150 130 4 6 23 10 43 8 30 -2 43 -12 79 -56z m454 -110 c47 -54 34 -69 -28 -31 -31 20 -83 83 -83 102 0 15 82 -37 111 -71z"/>
<path d="M405 854 c-142 -27 -246 -28 -327 -4 -67 20 -79 6 -45 -52 47 -77 60 -86 128 -98 35 -5 67 -10 71 -10 4 0 88 -96 187 -213 165 -196 252 -285 323 -332 35 -21 74 -13 84 18 16 49 -1 103 -71 224 -20 35 -31 64 -26 68 19 11 -1 34 -71 82 -65 44 -71 46 -83 30 -25 -34 9 -119 89 -221 47 -60 54 -85 14 -50 -11 10 -95 102 -186 204 l-164 185 33 7 c19 4 108 23 198 42 90 19 166 38 170 41 3 4 -17 29 -46 56 -48 45 -55 49 -100 48 -26 -1 -106 -12 -178 -25z"/>
<path d="M2280 474 c0 -261 3 -373 11 -369 14 9 59 -3 59 -16 0 -5 -6 -9 -12 -8 -7 1 -28 1 -45 0 -26 -1 -33 -5 -33 -21 0 -19 6 -20 108 -19 103 0 106 1 69 14 -78 29 -127 82 -127 138 0 26 35 63 65 69 19 3 20 13 25 143 4 112 9 145 23 165 26 38 22 53 -13 45 -26 -6 -29 -4 -23 12 18 52 57 67 87 34 18 -19 18 -19 49 0 42 25 97 24 130 -1 21 -17 26 -18 31 -5 8 22 53 19 66 -4 15 -29 12 -40 -10 -34 -24 6 -25 -1 -5 -57 8 -23 14 -61 13 -83 -1 -23 -1 -83 0 -133 2 -90 2 -91 26 -87 16 3 29 -3 44 -21 27 -36 32 -20 32 113 l0 107 -45 53 c-25 29 -45 58 -45 64 0 7 9 27 20 45 12 20 18 42 15 53 -4 10 -2 19 4 19 6 0 14 -11 17 -26 5 -18 0 -31 -16 -49 -28 -30 -22 -60 21 -100 l32 -30 -19 32 c-24 42 -9 63 32 44 20 -9 25 -17 22 -36 -4 -18 0 -26 15 -31 24 -8 39 13 26 38 -5 10 -28 27 -49 38 -22 11 -40 25 -40 30 0 12 97 -37 103 -53 4 -9 6 -9 6 1 1 12 -9 23 -76 82 -24 20 -31 64 -13 75 6 4 10 -8 10 -29 0 -29 5 -38 29 -51 45 -23 71 -62 71 -107 0 -32 -3 -39 -15 -34 -8 3 -15 1 -15 -4 0 -4 -13 -11 -30 -15 l-30 -7 0 -81 c1 -90 13 -132 53 -191 35 -50 34 -80 -2 -117 l-29 -29 69 0 c62 0 69 2 69 19 0 15 -8 21 -35 23 -39 3 -49 24 -11 22 19 -1 25 5 28 25 4 31 4 193 1 499 l-3 222 -370 0 -370 0 0 -376z"/>
<path d="M2510 624 c-48 -43 -69 -101 -52 -139 11 -24 37 -34 44 -17 2 5 16 12 31 16 33 8 28 -10 -7 -24 -18 -7 -16 -9 14 -9 19 -1 48 -9 63 -20 l28 -18 36 36 c30 30 35 42 35 78 -3 122 -106 174 -192 97z m102 9 c28 -25 22 -33 -22 -30 -42 2 -52 19 -22 36 23 14 23 14 44 -6z m-3 -56 c11 -14 5 -27 -11 -27 -5 0 -6 5 -3 10 3 6 1 10 -4 10 -6 0 -11 5 -11 10 0 14 16 12 29 -3z m-39 -47 c0 -15 -26 -27 -67 -33 -24 -3 -43 -2 -43 2 0 15 23 29 38 24 10 -4 13 -2 8 5 -5 8 4 11 29 10 19 -1 35 -4 35 -8z m95 -2 c30 -14 33 -38 4 -38 -26 0 -59 17 -59 31 0 6 5 7 10 4 6 -3 10 -1 10 4 0 14 3 14 35 -1z m0 -58 c-3 -5 -12 -10 -20 -10 -8 0 -17 5 -20 10 -4 6 5 10 20 10 15 0 24 -4 20 -10z"/>
<path d="M2440 290 c0 -87 -1 -90 -19 -80 -52 27 -91 -1 -71 -50 9 -21 30 -38 73 -60 51 -26 72 -30 137 -30 42 0 98 7 125 14 56 17 115 70 115 102 0 29 -27 45 -57 33 -23 -8 -23 -8 -23 76 l0 85 -140 0 -140 0 0 -90z"/>
<path d="M2766 89 c-10 -10 -37 -25 -60 -33 l-41 -14 90 0 c50 0 84 2 77 5 -8 3 -21 17 -30 32 -16 27 -18 27 -36 10z"/>
</g>
<g id="layer105" fill="#fcfbfb" stroke="none">
<path d="M2280 477 l0 -372 32 0 c17 0 33 -6 35 -12 3 -9 -9 -13 -41 -13 -39 0 -46 -3 -46 -20 0 -19 6 -20 108 -19 103 0 106 1 69 14 -78 29 -127 82 -127 138 0 26 35 63 65 69 19 3 20 13 25 143 4 112 9 145 23 165 26 38 22 53 -13 45 -35 -8 -38 2 -9 39 24 31 49 33 74 6 16 -17 19 -18 40 -4 46 30 81 34 122 13 24 -12 40 -16 47 -9 25 25 76 4 76 -31 0 -12 -6 -16 -20 -12 -24 6 -25 -1 -5 -57 8 -23 14 -61 13 -83 -1 -23 -1 -83 0 -133 2 -90 2 -91 26 -87 16 3 29 -3 44 -21 27 -36 32 -20 32 113 l0 107 -45 53 c-25 29 -45 58 -45 64 0 7 9 27 20 45 12 20 18 42 15 53 -4 10 -2 19 4 19 6 0 14 -11 17 -26 5 -18 0 -31 -16 -49 -28 -30 -22 -60 21 -100 l32 -30 -19 32 c-24 42 -9 63 32 44 20 -9 25 -17 22 -36 -6 -28 17 -42 38 -24 20 16 1 45 -46 69 -22 11 -40 25 -40 30 0 5 23 -2 50 -16 28 -14 50 -30 50 -36 0 -6 3 -9 6 -6 11 11 -15 46 -50 66 -39 23 -54 61 -38 95 9 19 11 17 11 -20 1 -36 5 -45 30 -58 45 -23 71 -62 71 -107 0 -32 -3 -39 -15 -34 -8 3 -15 1 -15 -4 0 -4 -13 -11 -30 -15 l-30 -7 0 -81 c1 -90 13 -132 53 -191 15 -21 27 -48 27 -60 0 -17 6 -21 29 -21 24 -1 30 4 33 25 4 30 4 194 1 498 l-3 222 -370 0 -370 0 0 -373z"/>
<path d="M2510 624 c-48 -43 -69 -101 -52 -139 11 -24 37 -34 44 -17 2 5 16 12 31 16 33 8 28 -10 -7 -24 -18 -7 -16 -9 14 -9 19 -1 48 -9 63 -20 l28 -18 34 34 c29 29 35 42 35 79 0 123 -103 176 -190 98z m102 9 c27 -25 22 -32 -22 -30 -43 1 -53 18 -22 36 23 14 23 14 44 -6z m-3 -56 c11 -14 5 -27 -11 -27 -5 0 -6 5 -3 10 3 6 1 10 -4 10 -6 0 -11 5 -11 10 0 14 16 12 29 -3z m-39 -47 c0 -15 -26 -27 -67 -33 -24 -3 -43 -2 -43 2 0 15 23 29 38 24 10 -4 13 -2 8 5 -5 8 4 11 29 10 19 -1 35 -4 35 -8z m95 -2 c30 -14 33 -38 4 -38 -26 0 -59 17 -59 31 0 6 5 7 10 4 6 -3 10 -1 10 4 0 14 3 14 35 -1z m0 -58 c-3 -5 -12 -10 -20 -10 -8 0 -17 5 -20 10 -4 6 5 10 20 10 15 0 24 -4 20 -10z"/>
<path d="M2840 540 c0 -7 3 -10 7 -7 3 4 3 10 0 14 -4 3 -7 0 -7 -7z"/>
<path d="M2440 290 c0 -87 -1 -90 -19 -80 -52 27 -91 -1 -71 -50 9 -21 30 -38 73 -60 51 -26 72 -30 137 -30 100 0 167 20 209 64 46 47 41 81 -12 81 l-37 0 0 83 0 82 -140 0 -140 0 0 -90z"/>
<path d="M2845 187 c-28 -38 -32 -78 -9 -101 27 -28 34 -18 34 52 l1 67 24 -30 c14 -16 25 -39 25 -49 0 -11 3 -17 6 -13 11 11 -5 53 -30 80 l-25 27 -26 -33z"/>
<path d="M2766 89 c-10 -10 -37 -25 -60 -33 l-41 -14 84 -1 c79 -1 83 0 69 17 -8 9 -19 24 -24 33 -8 15 -11 14 -28 -2z"/>
<path d="M2904 88 c-4 -7 -3 -8 4 -4 12 7 16 16 8 16 -3 0 -8 -5 -12 -12z"/>
<path d="M2927 65 l-28 -25 70 0 c64 0 71 2 71 20 0 15 -7 20 -29 20 -16 0 -35 2 -43 5 -7 2 -26 -7 -41 -20z"/>
</g>


</svg>