<!DOCTYPE svg PUBLIC "-//W3C//DTD SVG 20010904//EN" "http://www.w3.org/TR/2001/REC-SVG-20010904/DTD/svg10.dtd">
<svg version="1.0" xmlns="http://www.w3.org/2000/svg" width="350px" height="139px" viewBox="0 0 3500 1390" preserveAspectRatio="xMidYMid meet">
<g id="layer101" fill="#6f2b1b" stroke="none">
<path d="M0 695 l0 -695 1750 0 1750 0 0 695 0 695 -1750 0 -1750 0 0 -695z"/>
</g>
<g id="layer102" fill="#fb0e0e" stroke="none">
<path d="M0 695 l0 -695 1750 0 1750 0 0 695 0 695 -1750 0 -1750 0 0 -695z m1160 -340 c7 -9 8 -15 2 -15 -5 0 -12 7 -16 15 -3 8 -4 15 -2 15 2 0 9 -7 16 -15z m80 -35 c0 -5 -2 -10 -4 -10 -3 0 -8 5 -11 10 -3 6 -1 10 4 10 6 0 11 -4 11 -10z"/>
</g>
<g id="layer103" fill="#e23336" stroke="none">
<path d="M0 695 l0 -695 1750 0 1750 0 0 695 0 695 -1750 0 -1750 0 0 -695z m3200 -20 l0 -385 -37 2 c-38 1 -38 1 -5 5 l32 4 -2 380 c-2 208 0 379 5 379 4 0 7 -173 7 -385z m-561 171 c12 -14 16 -14 38 4 14 11 31 20 37 20 6 0 -3 -9 -20 -19 -68 -42 -105 -122 -78 -172 12 -24 21 -29 52 -29 21 0 58 -10 82 -22 l45 -23 38 40 c44 46 49 92 17 155 l-20 39 25 17 c20 13 28 14 40 4 17 -14 21 -45 4 -34 -21 12 -27 -19 -12 -60 10 -29 14 -82 14 -178 l-1 -138 35 0 c29 0 36 -4 41 -25 17 -69 44 9 44 127 0 68 -4 95 -17 115 -13 19 -14 25 -4 19 11 -7 13 -4 9 12 -4 12 -2 20 3 16 5 -3 9 7 9 21 0 15 4 24 10 20 6 -3 10 -21 10 -40 0 -28 3 -33 20 -30 11 2 22 -1 26 -6 3 -5 2 -9 -3 -8 -41 7 -43 2 -43 -109 0 -106 0 -107 35 -156 48 -68 48 -118 -2 -145 -46 -24 -113 -3 -113 36 0 8 -3 13 -7 11 -115 -59 -127 -62 -223 -62 -130 0 -209 35 -247 108 -21 40 -2 81 43 96 32 11 34 14 34 58 2 176 7 218 29 261 17 32 20 46 12 54 -9 9 -17 8 -31 -1 -26 -16 -25 -2 1 32 22 27 41 25 68 -8z m124 27 c-7 -2 -19 -2 -25 0 -7 3 -2 5 12 5 14 0 19 -2 13 -5z m204 -10 c-4 -3 -7 0 -7 7 0 7 3 10 7 7 3 -4 3 -10 0 -14z m-162 -3 c3 -5 4 -10 1 -10 -3 0 -8 5 -11 10 -3 6 -4 10 -1 10 3 0 8 -4 11 -10z m-35 -35 c11 -13 7 -15 -24 -15 -21 0 -35 4 -32 9 3 5 16 7 29 4 18 -4 19 -3 7 6 -8 6 -10 11 -4 11 6 0 17 -7 24 -15z m200 11 c0 -2 -8 -10 -17 -17 -16 -13 -17 -12 -4 4 13 16 21 21 21 13z m105 -26 c3 -5 4 -10 1 -10 -3 0 -8 5 -11 10 -3 6 -4 10 -1 10 3 0 8 -4 11 -10z m-50 -20 c3 -5 4 -10 1 -10 -3 0 -8 5 -11 10 -3 6 -4 10 -1 10 3 0 8 -4 11 -10z m70 -40 c3 -5 4 -10 1 -10 -3 0 -8 5 -11 10 -3 6 -4 10 -1 10 3 0 8 -4 11 -10z m-400 -20 c4 -6 12 -8 18 -4 7 3 3 -2 -7 -10 -11 -9 -27 -16 -35 -16 -13 0 -13 2 -2 9 7 5 10 14 7 20 -4 6 -3 11 3 11 5 0 13 -5 16 -10z m145 -23 c8 -3 1 -6 -17 -6 -17 -1 -35 3 -38 9 -3 6 1 7 10 4 11 -5 14 -2 9 12 -5 17 -4 17 8 3 7 -9 20 -18 28 -22z m-190 9 c0 -3 -5 -8 -12 -12 -7 -4 -8 -3 -4 4 7 12 16 16 16 8z m464 -14 c3 -5 -1 -9 -9 -9 -8 0 -12 4 -9 9 3 4 7 8 9 8 2 0 6 -4 9 -8z m-1877 -238 c2 -6 -6 -14 -19 -18 -14 -4 -19 -9 -12 -13 12 -9 28 -44 26 -55 -1 -5 3 -8 8 -8 6 0 10 -7 10 -15 0 -8 3 -15 8 -15 8 0 32 -49 32 -67 0 -26 -38 -12 -73 27 -39 44 -69 53 -60 20 3 -11 9 -23 14 -26 5 -3 9 -14 9 -25 0 -14 -7 -19 -24 -19 -14 0 -27 4 -31 9 -3 5 -19 12 -35 16 -16 4 -39 20 -51 36 -25 35 -17 36 36 4 22 -14 48 -25 59 -25 15 0 17 5 12 28 -4 15 -8 35 -9 44 -1 9 -5 14 -9 12 -4 -3 -12 6 -17 19 -6 14 -15 28 -21 32 -5 3 -8 11 -5 16 4 5 1 9 -4 9 -6 0 -11 5 -11 10 0 22 26 8 50 -28 14 -20 33 -43 42 -50 10 -7 18 -19 18 -26 0 -13 21 -26 41 -26 12 0 12 37 0 45 -14 8 -41 65 -41 85 0 20 51 23 57 4z m155 -2 c-19 -6 -14 -44 10 -71 19 -22 17 -21 -12 4 -19 17 -37 31 -40 33 -2 2 2 7 9 11 10 7 10 10 1 16 -17 10 8 25 29 17 10 -4 11 -7 3 -10z m-57 -21 c-3 -2 -12 2 -20 9 -14 11 -17 10 -22 -8 -3 -12 -9 -22 -14 -22 -14 0 -11 17 6 34 13 13 20 13 35 4 11 -7 17 -14 15 -17z m143 22 c-19 -5 -31 -30 -18 -38 6 -4 10 -14 10 -23 -1 -12 -4 -10 -14 8 -17 29 -5 61 22 59 15 -1 15 -2 0 -6z m249 0 c-4 -3 -10 -3 -14 0 -3 4 0 7 7 7 7 0 10 -3 7 -7z m74 -2 c-15 -10 -8 -61 9 -61 6 0 10 -9 10 -20 0 -24 -11 -25 -55 -4 -45 21 -80 60 -64 69 7 5 10 4 5 -3 -7 -12 50 -59 67 -54 5 2 14 -3 20 -10 6 -9 7 -7 2 7 -4 11 -9 35 -12 53 -5 27 -2 32 13 32 15 0 16 -2 5 -9z m-231 -30 c0 -5 12 -24 27 -42 15 -18 21 -30 13 -27 -17 5 -64 78 -50 78 5 0 10 -4 10 -9z m101 0 c-12 -8 -13 -14 -3 -36 17 -38 14 -44 -8 -15 -23 29 -25 46 -7 53 21 9 33 7 18 -2z m-354 -28 c-4 -3 -10 -3 -14 0 -3 4 0 7 7 7 7 0 10 -3 7 -7z m18 -23 c3 -5 4 -10 1 -10 -3 0 -8 5 -11 10 -3 6 -4 10 -1 10 3 0 8 -4 11 -10z m200 -10 c3 -5 -1 -10 -10 -10 -9 0 -13 5 -10 10 3 6 8 10 10 10 2 0 7 -4 10 -10z m953 -77 c-10 -2 -28 -2 -40 0 -13 2 -5 4 17 4 22 1 32 -1 23 -4z"/>
<path d="M3007 400 c-40 -62 -44 -87 -16 -116 26 -28 46 -30 77 -8 30 21 31 83 1 110 -12 10 -24 27 -28 37 -6 15 -11 11 -34 -23z m53 -39 c14 -27 13 -56 -4 -70 -12 -10 -15 -3 -18 39 -3 52 4 63 22 31z"/>
</g>
<g id="layer104" fill="#d24241" stroke="none">
<path d="M0 695 l0 -695 1750 0 1750 0 0 695 0 695 -1750 0 -1750 0 0 -695z m2437 358 c-4 -3 -10 -3 -14 0 -3 4 0 7 7 7 7 0 10 -3 7 -7z m763 -378 l0 -385 -37 2 c-38 1 -38 1 -5 5 l32 4 -2 380 c-2 208 0 379 5 379 4 0 7 -173 7 -385z m-173 218 c-4 -3 -7 0 -7 7 0 7 3 10 7 7 3 -4 3 -10 0 -14z m-388 -47 c12 -14 16 -14 38 4 14 11 30 20 36 20 5 0 -5 -10 -23 -22 -67 -46 -97 -113 -74 -166 11 -28 18 -32 51 -32 21 0 59 -10 83 -22 l45 -23 38 40 c44 46 49 92 17 155 l-20 39 25 17 c20 13 28 14 40 4 17 -14 21 -45 4 -34 -21 12 -27 -19 -12 -60 10 -29 14 -82 14 -178 l-1 -138 35 0 c29 0 36 -4 41 -25 17 -69 44 9 44 127 0 68 -4 95 -17 115 -13 19 -14 25 -4 19 11 -7 13 -4 9 12 -4 12 -2 20 3 16 5 -3 9 7 9 21 0 15 4 24 10 20 6 -3 10 -21 10 -40 0 -28 3 -33 20 -30 11 2 23 -1 26 -7 4 -7 2 -8 -4 -4 -7 4 -12 3 -12 -3 0 -6 -7 -8 -15 -5 -13 5 -15 -10 -15 -102 0 -109 0 -109 35 -158 48 -68 48 -118 -2 -145 -46 -24 -113 -3 -113 36 0 8 -3 13 -7 11 -115 -59 -127 -62 -223 -62 -130 0 -209 35 -247 108 -21 40 -2 81 43 96 38 13 36 4 36 186 -1 55 5 83 24 124 27 59 20 85 -16 62 -26 -16 -25 -2 1 32 22 27 41 25 68 -8z m124 27 c-7 -2 -19 -2 -25 0 -7 3 -2 5 12 5 14 0 19 -2 13 -5z m204 -10 c-4 -3 -7 0 -7 7 0 7 3 10 7 7 3 -4 3 -10 0 -14z m-162 -3 c3 -5 4 -10 1 -10 -3 0 -8 5 -11 10 -3 6 -4 10 -1 10 3 0 8 -4 11 -10z m-35 -35 c11 -13 7 -15 -24 -15 -21 0 -35 4 -32 9 3 5 16 7 29 4 18 -4 19 -3 7 6 -8 6 -10 11 -4 11 6 0 17 -7 24 -15z m200 11 c0 -2 -8 -10 -17 -17 -16 -13 -17 -12 -4 4 13 16 21 21 21 13z m105 -26 c3 -5 4 -10 1 -10 -3 0 -8 5 -11 10 -3 6 -4 10 -1 10 3 0 8 -4 11 -10z m-50 -20 c3 -5 4 -10 1 -10 -3 0 -8 5 -11 10 -3 6 -4 10 -1 10 3 0 8 -4 11 -10z m93 -35 c-3 -3 -9 2 -12 12 -6 14 -5 15 5 6 7 -7 10 -15 7 -18z m-118 1 c0 -3 -5 -8 -12 -12 -7 -4 -8 -3 -4 4 7 12 16 16 16 8z m95 -6 c3 -5 4 -10 1 -10 -3 0 -8 5 -11 10 -3 6 -4 10 -1 10 3 0 8 -4 11 -10z m-400 -20 c4 -6 12 -8 18 -4 7 3 3 -2 -7 -10 -11 -9 -27 -16 -35 -16 -13 0 -13 2 -2 9 7 5 10 14 7 20 -4 6 -3 11 3 11 5 0 13 -5 16 -10z m145 -23 c8 -3 1 -6 -17 -6 -17 -1 -35 3 -38 9 -3 6 1 7 10 4 11 -5 14 -2 9 12 -5 17 -4 17 8 3 7 -9 20 -18 28 -22z m-190 9 c0 -3 -5 -8 -12 -12 -7 -4 -8 -3 -4 4 7 12 16 16 16 8z m335 -6 c3 -5 4 -10 1 -10 -3 0 -8 5 -11 10 -3 6 -4 10 -1 10 3 0 8 -4 11 -10z m134 -23 c0 -9 -2 -8 -6 1 -2 6 -10 9 -15 6 -7 -4 -8 -2 -4 5 9 13 26 5 25 -12z m-1882 -223 c2 -6 -6 -14 -19 -18 -14 -4 -19 -9 -12 -13 12 -9 28 -44 26 -55 -1 -5 3 -8 8 -8 6 0 10 -7 10 -15 0 -8 3 -15 8 -15 8 0 32 -49 32 -67 0 -26 -38 -12 -73 27 -19 22 -40 40 -46 40 -14 0 -14 -37 -1 -45 6 -3 10 -15 10 -26 0 -14 -7 -19 -24 -19 -14 0 -28 5 -31 10 -3 6 -15 10 -27 10 -19 0 -83 58 -74 67 2 3 24 -7 49 -21 61 -36 78 -34 74 8 -1 19 -6 32 -11 28 -5 -3 -6 2 -3 12 4 10 3 15 -3 11 -6 -3 -14 5 -19 18 -6 14 -15 28 -21 32 -5 3 -8 11 -5 16 4 5 1 9 -4 9 -6 0 -11 5 -11 10 0 22 26 8 50 -28 14 -20 33 -43 42 -50 10 -7 18 -19 18 -26 0 -13 21 -26 41 -26 12 0 12 37 0 45 -14 8 -41 65 -41 85 0 20 51 23 57 4z m155 -2 c-19 -6 -14 -44 10 -71 19 -22 17 -21 -12 4 -19 17 -37 31 -40 33 -2 2 2 7 9 11 10 7 10 10 1 16 -17 10 8 25 29 17 10 -4 11 -7 3 -10z m-57 -21 c-3 -2 -12 2 -20 9 -14 11 -17 10 -22 -8 -3 -12 -9 -22 -14 -22 -14 0 -11 17 6 34 13 13 20 13 35 4 11 -7 17 -14 15 -17z m143 22 c-19 -5 -31 -30 -18 -38 6 -4 10 -14 10 -23 -1 -12 -4 -10 -14 8 -17 29 -5 61 22 59 15 -1 15 -2 0 -6z m249 0 c-4 -3 -10 -3 -14 0 -3 4 0 7 7 7 7 0 10 -3 7 -7z m74 -2 c-15 -10 -8 -61 9 -61 6 0 10 -9 10 -20 0 -24 -11 -25 -55 -4 -45 21 -80 60 -64 69 7 5 10 4 5 -3 -7 -12 50 -59 67 -54 5 2 14 -3 20 -10 6 -9 7 -7 2 7 -4 11 -9 35 -12 53 -5 27 -2 32 13 32 15 0 16 -2 5 -9z m-231 -30 c0 -5 12 -24 27 -42 15 -18 21 -30 13 -27 -17 5 -64 78 -50 78 5 0 10 -4 10 -9z m101 0 c-12 -8 -13 -14 -3 -36 17 -38 14 -44 -8 -15 -23 29 -25 46 -7 53 21 9 33 7 18 -2z m-354 -28 c-4 -3 -10 -3 -14 0 -3 4 0 7 7 7 7 0 10 -3 7 -7z m18 -23 c3 -5 4 -10 1 -10 -3 0 -8 5 -11 10 -3 6 -4 10 -1 10 3 0 8 -4 11 -10z m200 -10 c3 -5 -1 -10 -10 -10 -9 0 -13 5 -10 10 3 6 8 10 10 10 2 0 7 -4 10 -10z m953 -77 c-10 -2 -28 -2 -40 0 -13 2 -5 4 17 4 22 1 32 -1 23 -4z"/>
<path d="M2608 579 c-5 -3 -10 -43 -10 -88 0 -44 -2 -81 -4 -81 -2 0 -14 5 -27 11 -61 28 -92 -44 -39 -94 67 -64 195 -86 310 -52 88 27 146 92 119 136 -9 16 -19 19 -44 14 l-33 -6 0 84 0 83 -131 0 c-72 -1 -135 -4 -141 -7z"/>
</g>
<g id="layer105" fill="#fc3130" stroke="none">
<path d="M0 695 l0 -695 1750 0 1750 0 0 695 0 695 -1750 0 -1750 0 0 -695z m2434 -14 l-2 -380 37 -4 c36 -4 35 -4 -6 -5 l-43 -2 0 385 c0 212 3 385 8 385 4 0 6 -171 6 -379z m766 -6 l0 -385 -37 2 c-38 1 -38 1 -5 5 l32 4 -2 380 c-2 208 0 379 5 379 4 0 7 -173 7 -385z m-173 218 c-4 -3 -7 0 -7 7 0 7 3 10 7 7 3 -4 3 -10 0 -14z m-388 -47 c12 -14 16 -14 38 4 14 11 30 20 36 20 5 0 -5 -10 -23 -22 -67 -46 -97 -113 -74 -166 11 -28 18 -32 51 -32 21 0 59 -10 83 -22 l45 -23 38 40 c44 46 49 92 17 155 l-20 39 25 17 c20 13 28 14 40 4 17 -14 21 -45 4 -34 -21 12 -27 -19 -12 -60 10 -29 14 -82 14 -178 l-1 -138 35 0 c29 0 36 -4 41 -25 17 -69 44 9 44 127 0 68 -4 95 -17 115 -13 19 -14 25 -4 19 11 -7 13 -4 9 12 -4 12 -2 20 3 16 5 -3 9 7 9 21 0 15 4 24 10 20 6 -3 10 -21 10 -40 0 -28 3 -33 20 -30 11 2 23 -1 26 -7 4 -7 2 -8 -4 -4 -7 4 -12 3 -12 -3 0 -6 -7 -8 -15 -5 -13 5 -15 -10 -15 -102 0 -109 0 -109 35 -158 48 -68 48 -118 -2 -145 -46 -24 -113 -3 -113 36 0 8 -3 13 -7 11 -115 -59 -127 -62 -223 -62 -130 0 -209 35 -247 108 -21 40 -2 81 43 96 38 13 36 4 36 186 -1 55 5 83 24 124 27 59 20 85 -16 62 -26 -16 -25 -2 1 32 22 27 41 25 68 -8z m124 27 c-7 -2 -19 -2 -25 0 -7 3 -2 5 12 5 14 0 19 -2 13 -5z m204 -10 c-4 -3 -7 0 -7 7 0 7 3 10 7 7 3 -4 3 -10 0 -14z m-162 -3 c3 -5 4 -10 1 -10 -3 0 -8 5 -11 10 -3 6 -4 10 -1 10 3 0 8 -4 11 -10z m-35 -35 c11 -13 7 -15 -24 -15 -21 0 -35 4 -32 9 3 5 16 7 29 4 18 -4 19 -3 7 6 -8 6 -10 11 -4 11 6 0 17 -7 24 -15z m200 11 c0 -2 -8 -10 -17 -17 -16 -13 -17 -12 -4 4 13 16 21 21 21 13z m105 -26 c3 -5 4 -10 1 -10 -3 0 -8 5 -11 10 -3 6 -4 10 -1 10 3 0 8 -4 11 -10z m-50 -20 c3 -5 4 -10 1 -10 -3 0 -8 5 -11 10 -3 6 -4 10 -1 10 3 0 8 -4 11 -10z m93 -35 c-3 -3 -9 2 -12 12 -6 14 -5 15 5 6 7 -7 10 -15 7 -18z m-118 1 c0 -3 -5 -8 -12 -12 -7 -4 -8 -3 -4 4 7 12 16 16 16 8z m95 -6 c3 -5 4 -10 1 -10 -3 0 -8 5 -11 10 -3 6 -4 10 -1 10 3 0 8 -4 11 -10z m-400 -20 c4 -6 12 -8 18 -4 7 3 3 -2 -7 -10 -11 -9 -27 -16 -35 -16 -13 0 -13 2 -2 9 7 5 10 14 7 20 -4 6 -3 11 3 11 5 0 13 -5 16 -10z m145 -23 c8 -3 1 -6 -17 -6 -17 -1 -35 3 -38 9 -3 6 1 7 10 4 11 -5 14 -2 9 12 -5 17 -4 17 8 3 7 -9 20 -18 28 -22z m-190 9 c0 -3 -5 -8 -12 -12 -7 -4 -8 -3 -4 4 7 12 16 16 16 8z m335 -6 c3 -5 4 -10 1 -10 -3 0 -8 5 -11 10 -3 6 -4 10 -1 10 3 0 8 -4 11 -10z m134 -23 c0 -9 -2 -8 -6 1 -2 6 -10 9 -15 6 -7 -4 -8 -2 -4 5 9 13 26 5 25 -12z m-1882 -223 c2 -6 -6 -14 -19 -18 -14 -4 -19 -9 -12 -13 12 -9 28 -44 26 -55 -1 -5 3 -8 8 -8 6 0 10 -7 10 -15 0 -8 3 -15 8 -15 8 0 32 -49 32 -67 0 -26 -38 -12 -73 27 -19 22 -40 40 -46 40 -14 0 -14 -37 -1 -45 6 -3 10 -15 10 -26 0 -14 -7 -19 -24 -19 -14 0 -28 5 -31 10 -3 6 -17 10 -30 10 -21 0 -81 58 -70 68 2 2 23 -8 48 -22 50 -29 77 -33 77 -11 0 18 -48 113 -61 121 -5 3 -7 10 -4 15 4 5 1 9 -4 9 -6 0 -11 5 -11 10 0 22 26 8 50 -28 14 -20 33 -43 42 -50 10 -7 18 -19 18 -26 0 -13 21 -26 41 -26 12 0 12 37 0 45 -14 8 -41 65 -41 85 0 20 51 23 57 4z m155 -2 c-19 -6 -14 -44 10 -71 19 -22 17 -21 -12 4 -19 17 -37 31 -40 33 -2 2 2 7 9 11 10 7 10 10 1 16 -17 10 8 25 29 17 10 -4 11 -7 3 -10z m-57 -21 c-3 -2 -12 2 -20 9 -14 11 -17 10 -22 -8 -3 -12 -9 -22 -14 -22 -14 0 -11 17 6 34 13 13 20 13 35 4 11 -7 17 -14 15 -17z m143 22 c-19 -5 -31 -30 -18 -38 6 -4 10 -14 10 -23 -1 -12 -4 -10 -14 8 -17 29 -5 61 22 59 15 -1 15 -2 0 -6z m249 0 c-4 -3 -10 -3 -14 0 -3 4 0 7 7 7 7 0 10 -3 7 -7z m74 -2 c-15 -10 -8 -61 9 -61 6 0 10 -9 10 -20 0 -11 -7 -20 -16 -20 -8 0 -13 4 -10 9 4 5 -2 7 -12 5 -23 -7 -101 59 -84 70 7 4 11 3 10 -4 -5 -19 55 -60 72 -50 11 7 12 14 4 27 -14 24 -6 53 14 53 14 0 14 -2 3 -9z m-231 -30 c0 -5 12 -24 27 -42 15 -18 21 -30 13 -27 -17 5 -64 78 -50 78 5 0 10 -4 10 -9z m101 0 c-12 -8 -13 -14 -3 -36 17 -38 14 -44 -8 -15 -23 29 -25 46 -7 53 21 9 33 7 18 -2z m-354 -28 c-4 -3 -10 -3 -14 0 -3 4 0 7 7 7 7 0 10 -3 7 -7z m18 -23 c3 -5 4 -10 1 -10 -3 0 -8 5 -11 10 -3 6 -4 10 -1 10 3 0 8 -4 11 -10z m200 -10 c3 -5 -1 -10 -10 -10 -9 0 -13 5 -10 10 3 6 8 10 10 10 2 0 7 -4 10 -10z"/>
<path d="M2608 579 c-5 -4 -10 -45 -10 -92 l0 -86 -24 16 c-35 23 -74 4 -74 -35 0 -63 104 -121 216 -122 120 0 221 44 245 107 14 38 -8 65 -48 58 l-33 -6 0 84 0 83 -131 0 c-72 -1 -135 -4 -141 -7z"/>
<path d="M3007 400 c-40 -62 -44 -87 -16 -116 27 -29 52 -31 79 -4 27 27 26 81 -1 106 -12 10 -24 27 -28 37 -6 15 -11 11 -34 -23z m53 -39 c14 -27 13 -56 -4 -70 -12 -10 -15 -3 -18 39 -3 52 4 63 22 31z"/>
</g>
<g id="layer106" fill="#ef423e" stroke="none">
<path d="M0 695 l0 -695 1750 0 1750 0 0 695 0 695 -1750 0 -1750 0 0 -695z m3200 -20 l0 -385 -37 2 c-37 1 -37 1 -5 5 l32 4 0 375 0 374 -381 0 -380 0 2 -374 2 -375 36 -4 c35 -4 35 -4 -6 -5 l-43 -2 0 385 0 385 390 0 390 0 0 -385z m-173 198 c-3 -10 -5 -4 -5 12 0 17 2 24 5 18 2 -7 2 -21 0 -30z m-394 -21 c16 -14 21 -14 46 1 39 23 54 22 16 -2 -64 -39 -101 -111 -83 -163 10 -28 18 -32 91 -42 20 -3 51 -14 67 -26 17 -12 30 -17 30 -11 0 6 16 25 35 42 27 25 35 40 35 66 0 45 -23 97 -57 130 -28 27 -28 27 -2 11 24 -15 27 -15 43 0 19 19 49 7 54 -23 3 -11 0 -15 -8 -10 -22 13 -29 -17 -14 -54 11 -27 15 -73 15 -178 l-1 -143 35 0 c29 0 36 -4 41 -25 17 -68 44 13 44 133 0 62 -4 89 -17 109 -10 15 -12 24 -5 20 17 -11 15 9 -4 37 -10 17 -12 26 -4 31 6 3 10 3 9 -2 -3 -18 2 -33 11 -33 6 0 10 9 10 21 0 11 5 17 10 14 6 -3 10 -21 10 -40 0 -28 3 -33 20 -30 11 2 22 0 25 -6 6 -9 -8 -13 -32 -10 -10 1 -13 -25 -13 -105 0 -106 0 -108 34 -158 46 -68 50 -102 16 -136 -37 -37 -130 -18 -130 27 0 17 -7 17 -38 -6 -46 -32 -104 -45 -197 -45 -127 1 -215 41 -245 113 -16 40 1 76 44 92 l36 13 0 121 c0 107 3 126 25 174 28 59 22 81 -14 62 -29 -16 -28 5 0 36 22 23 30 22 62 -5z m140 21 c-7 -2 -21 -2 -30 0 -10 3 -4 5 12 5 17 0 24 -2 18 -5z m194 -10 c-4 -3 -7 0 -7 7 0 7 3 10 7 7 3 -4 3 -10 0 -14z m-197 -38 c11 -13 7 -15 -25 -15 -32 0 -36 2 -25 15 7 8 18 15 25 15 7 0 18 -7 25 -15z m200 11 c0 -2 -8 -10 -17 -17 -16 -13 -17 -12 -4 4 13 16 21 21 21 13z m105 -26 c3 -5 4 -10 1 -10 -3 0 -8 5 -11 10 -3 6 -4 10 -1 10 3 0 8 -4 11 -10z m-121 -81 c4 -8 0 -5 -8 5 -9 11 -16 31 -15 45 1 24 2 24 8 -5 4 -17 11 -37 15 -45z m71 61 c3 -5 4 -10 1 -10 -3 0 -8 5 -11 10 -3 6 -4 10 -1 10 3 0 8 -4 11 -10z m93 -35 c-3 -3 -9 2 -12 12 -6 14 -5 15 5 6 7 -7 10 -15 7 -18z m-27 -2 c13 -17 13 -17 -6 -3 -11 8 -22 16 -24 17 -2 2 0 3 6 3 6 0 17 -8 24 -17z m-396 -23 c4 -6 12 -7 18 -3 7 4 6 0 -2 -10 -7 -9 -23 -17 -35 -17 -16 0 -18 2 -7 9 7 5 10 14 7 20 -4 6 -3 11 3 11 5 0 13 -5 16 -10z m145 -23 c8 -3 1 -6 -17 -6 -17 -1 -35 3 -38 9 -3 6 1 7 10 4 11 -5 14 -2 9 12 -5 17 -4 17 8 3 7 -9 20 -18 28 -22z m-190 3 c0 -5 -5 -10 -11 -10 -5 0 -7 5 -4 10 3 6 8 10 11 10 2 0 4 -4 4 -10z m335 0 c3 -5 4 -10 1 -10 -3 0 -8 5 -11 10 -3 6 -4 10 -1 10 3 0 8 -4 11 -10z m135 -20 c0 -5 -7 -7 -15 -4 -8 4 -12 10 -9 15 6 11 24 2 24 -11z m-1880 -227 c29 -24 33 -25 42 -10 11 21 32 22 48 2 16 -20 34 -19 26 0 -9 25 21 29 50 8 26 -19 28 -19 45 -2 18 18 51 16 68 -5 8 -10 3 -11 -19 -8 -23 3 -30 0 -30 -12 0 -9 6 -16 13 -17 10 0 10 -2 0 -6 -7 -2 -13 -12 -13 -21 0 -10 -10 -2 -25 21 -15 21 -34 37 -45 37 -27 0 -25 -12 6 -50 42 -49 20 -47 -37 4 -28 25 -55 46 -60 46 -17 0 -9 -24 18 -52 14 -15 24 -31 20 -34 -7 -7 -53 26 -55 39 -2 14 -49 47 -67 47 -22 0 -13 -28 38 -108 36 -57 38 -65 24 -79 -14 -14 -20 -11 -66 32 -55 52 -71 53 -51 6 7 -17 10 -37 6 -46 -5 -13 -10 -13 -44 0 -22 9 -45 15 -52 13 -13 -3 -64 61 -56 70 3 2 25 -7 50 -22 48 -28 76 -33 76 -14 0 6 -18 44 -40 84 -45 82 -45 84 -26 84 7 0 25 -17 40 -38 32 -47 94 -108 101 -100 3 3 -8 33 -24 68 -42 89 -25 117 39 63z m384 -12 c9 -15 74 -11 80 5 3 8 13 13 23 13 17 -1 17 -2 1 -6 -41 -10 -2 -73 44 -73 18 0 25 25 9 34 -9 6 -2 56 8 56 4 0 16 -7 27 -15 17 -13 17 -14 2 -15 -22 0 -22 -7 -3 -53 11 -27 12 -36 2 -40 -18 -6 -58 11 -99 44 -34 27 -58 37 -58 24 0 -4 7 -19 15 -35 9 -17 12 -30 9 -30 -12 0 -44 32 -44 43 0 16 -31 47 -47 47 -20 0 -16 -34 7 -55 11 -10 20 -24 20 -31 0 -23 -30 -4 -54 34 l-22 35 20 23 c20 22 45 20 60 -5z m-81 -75 c7 -18 -12 -26 -38 -15 -17 6 -17 8 -2 8 9 1 17 6 17 11 0 15 17 12 23 -4z"/>
<path d="M2600 490 l0 -90 -25 16 c-37 24 -75 6 -75 -35 0 -37 54 -84 124 -107 97 -33 258 -3 312 57 47 52 32 107 -25 94 l-31 -7 0 81 0 81 -140 0 -140 0 0 -90z"/>
<path d="M3020 417 c0 -8 -9 -22 -19 -31 -11 -10 -23 -32 -27 -49 -5 -26 -2 -35 21 -54 18 -16 34 -22 48 -17 53 15 61 72 20 127 -30 38 -43 46 -43 24z m50 -91 c0 -21 -17 -46 -31 -46 -4 0 -6 25 -6 56 1 55 1 56 19 34 10 -12 18 -32 18 -44z"/>
</g>
<g id="layer107" fill="#f45251" stroke="none">
<path d="M0 695 l0 -695 1750 0 1750 0 0 695 0 695 -1750 0 -1750 0 0 -695z m3200 -20 l0 -385 -37 2 c-37 1 -37 1 -5 5 l32 4 0 375 0 374 -381 0 -380 0 2 -374 2 -375 36 -4 c35 -4 35 -4 -6 -5 l-43 -2 0 385 0 385 390 0 390 0 0 -385z m-142 146 c15 -13 20 -20 12 -16 -37 19 -50 39 -48 74 l1 36 4 -35 c2 -22 14 -44 31 -59z m-425 31 c16 -14 21 -14 46 1 42 25 49 21 10 -6 -47 -32 -79 -83 -79 -127 0 -47 21 -66 82 -72 25 -3 60 -15 76 -27 29 -20 31 -20 36 -3 4 10 20 28 36 40 23 18 30 30 30 58 0 46 -22 98 -57 131 -28 27 -28 27 -2 11 24 -15 28 -15 42 -1 19 19 42 12 58 -18 10 -19 9 -21 -7 -15 -27 10 -35 -13 -18 -53 11 -27 15 -73 15 -178 l-1 -142 38 -3 c30 -2 38 -7 40 -25 5 -34 17 -28 30 16 19 61 15 197 -5 228 -10 15 -12 24 -5 20 17 -11 15 9 -3 37 -14 21 -14 24 2 37 14 10 16 10 6 0 -12 -14 -7 -41 8 -41 5 0 9 9 9 21 0 11 5 17 10 14 6 -3 10 -21 10 -40 0 -29 3 -33 21 -30 12 2 27 9 33 15 13 10 26 4 26 -12 0 -5 -5 -6 -10 -3 -6 3 -17 -1 -25 -9 -9 -8 -22 -13 -30 -10 -13 5 -15 -11 -15 -102 0 -106 0 -108 34 -158 46 -68 50 -102 16 -136 -37 -37 -130 -18 -130 27 0 17 -7 17 -38 -6 -15 -10 -45 -24 -67 -32 -51 -17 -198 -17 -250 0 -126 42 -175 158 -81 192 l34 12 4 136 c3 121 6 140 27 174 27 44 18 67 -18 48 -29 -16 -28 5 0 36 22 23 30 22 62 -5z m140 21 c-7 -2 -21 -2 -30 0 -10 3 -4 5 12 5 17 0 24 -2 18 -5z m194 -10 c-4 -3 -7 0 -7 7 0 7 3 10 7 7 3 -4 3 -10 0 -14z m-197 -38 c11 -13 7 -15 -25 -15 -32 0 -36 2 -25 15 7 8 18 15 25 15 7 0 18 -7 25 -15z m200 11 c0 -2 -8 -10 -17 -17 -16 -13 -17 -12 -4 4 13 16 21 21 21 13z m2 -118 c22 -19 22 -19 1 -8 -27 13 -43 41 -42 72 1 17 3 14 9 -11 5 -19 19 -43 32 -53z m53 72 c3 -5 4 -10 1 -10 -3 0 -8 5 -11 10 -3 6 -4 10 -1 10 3 0 8 -4 11 -10z m95 -34 c0 -12 -5 -7 -19 24 -11 24 -11 24 3 6 9 -11 16 -24 16 -30z m-29 -3 c13 -17 13 -17 -6 -3 -11 8 -22 16 -24 17 -2 2 0 3 6 3 6 0 17 -8 24 -17z m-396 -23 c4 -6 11 -8 16 -5 5 4 9 2 9 -3 0 -6 -7 -13 -16 -16 -25 -10 -74 -7 -74 4 0 6 11 8 25 4 20 -5 24 -3 19 10 -7 17 11 22 21 6z m128 -28 c-14 -2 -31 2 -37 8 -8 8 -7 9 7 4 14 -5 16 -2 10 12 -6 16 -5 16 19 -2 l26 -19 -25 -3z m-116 -29 c-4 -3 -10 -3 -14 0 -3 4 0 7 7 7 7 0 10 -3 7 -7z m-1469 -208 c35 -29 42 -31 42 -10 0 8 8 15 19 15 10 0 24 -7 31 -15 16 -20 34 -19 26 0 -9 25 23 30 52 8 27 -20 27 -20 43 0 l16 21 42 -22 42 -22 17 21 c17 20 18 20 42 1 30 -23 80 -26 96 -4 6 8 17 12 25 9 10 -4 9 -6 -3 -6 -44 -2 -1 -71 44 -71 18 0 24 20 11 33 -3 4 -8 18 -9 32 -3 33 21 33 61 -1 l30 -25 -28 12 c-33 15 -44 6 -30 -24 19 -38 22 -56 13 -62 -14 -9 -92 28 -114 54 -17 19 -46 29 -46 16 0 -4 7 -19 15 -35 26 -50 -6 -37 -37 15 -28 45 -58 60 -58 28 0 -9 9 -27 21 -39 12 -12 19 -28 17 -35 -3 -9 -11 -5 -26 11 -12 14 -33 37 -47 53 -26 30 -75 38 -75 12 0 -8 6 -15 13 -15 8 0 8 -3 -2 -9 -8 -5 -11 -16 -8 -25 11 -28 -2 -17 -28 24 -16 25 -33 40 -45 40 -27 0 -25 -12 6 -50 42 -49 20 -47 -38 4 -29 25 -56 46 -60 46 -16 0 -7 -28 17 -50 14 -13 25 -27 25 -32 0 -19 -25 -5 -66 37 -24 25 -51 45 -60 45 -21 0 -15 -15 38 -103 37 -62 40 -70 25 -84 -14 -14 -20 -11 -66 32 -55 52 -71 53 -51 6 7 -17 10 -38 6 -46 -5 -14 -9 -14 -43 0 -20 9 -42 14 -49 11 -15 -6 -49 31 -59 62 -6 21 -4 21 53 -10 33 -18 64 -29 69 -25 4 5 -11 44 -35 87 -47 87 -48 90 -28 90 8 0 30 -21 49 -47 41 -55 85 -99 92 -91 3 3 -9 35 -26 71 -17 37 -28 71 -24 77 10 17 32 12 63 -15z m301 -106 c-6 -3 -21 -4 -33 -1 -18 5 -18 7 -3 10 9 2 17 11 17 20 1 15 3 14 15 -2 11 -14 12 -22 4 -27z"/>
<path d="M2600 490 l0 -90 -25 16 c-53 34 -97 -22 -58 -74 11 -15 42 -38 69 -52 41 -21 62 -25 139 -25 103 0 152 14 201 57 54 48 45 116 -15 103 l-31 -7 0 81 0 81 -140 0 -140 0 0 -90z"/>
<path d="M3020 417 c0 -8 -9 -22 -19 -31 -11 -10 -23 -32 -27 -49 -5 -26 -2 -35 21 -54 18 -16 34 -22 48 -17 53 15 61 72 20 127 -30 38 -43 46 -43 24z m50 -92 c0 -28 -13 -45 -36 -45 -2 0 -4 25 -4 57 0 55 0 56 20 38 12 -11 20 -31 20 -50z"/>
</g>
<g id="layer108" fill="#f46a6a" stroke="none">
<path d="M0 695 l0 -695 1750 0 1750 0 0 695 0 695 -1750 0 -1750 0 0 -695z m3200 -20 l0 -385 -37 2 c-37 1 -37 1 -5 5 l32 4 0 375 0 374 -381 0 -380 0 3 -372 3 -373 35 -6 35 -6 -42 -2 -43 -1 0 385 0 385 390 0 390 0 0 -385z m-134 143 c30 -17 54 -45 54 -61 0 -3 -15 9 -34 27 -18 17 -41 37 -50 44 -10 8 -15 26 -14 50 l1 37 4 -38 c4 -31 11 -42 39 -59z m-374 42 c41 25 74 25 114 1 28 -17 33 -18 47 -4 19 19 42 12 57 -17 11 -20 10 -21 -9 -15 -18 5 -21 2 -21 -20 0 -14 5 -35 11 -46 6 -12 10 -79 10 -164 l-1 -144 37 -3 c30 -2 38 -8 43 -28 l6 -25 14 25 c17 31 25 217 10 235 -6 7 -8 20 -4 28 3 9 -1 26 -10 38 -11 17 -13 26 -5 36 18 21 49 -3 49 -38 0 -18 4 -28 10 -24 6 3 10 1 10 -5 0 -13 30 1 56 27 17 17 18 17 11 0 -4 -10 -7 -23 -7 -28 0 -6 -5 -7 -10 -4 -6 3 -17 -1 -25 -9 -9 -8 -22 -13 -30 -10 -13 5 -15 -10 -15 -97 0 -100 1 -105 34 -159 46 -75 50 -106 16 -140 -38 -38 -130 -19 -130 26 0 17 -16 19 -26 3 -13 -22 -92 -49 -160 -55 -137 -12 -246 29 -289 109 -18 34 -19 39 -5 64 9 16 29 31 48 37 l32 9 0 127 c0 117 2 131 26 175 27 52 21 75 -15 56 -29 -16 -29 11 1 38 l21 21 33 -21 32 -20 34 21z m267 -39 c-27 -34 -24 -67 11 -98 17 -14 30 -31 30 -37 0 -5 -16 7 -35 27 -39 41 -44 70 -18 107 10 14 17 34 15 45 l-2 20 9 -20 c6 -14 3 -27 -10 -44z m135 -70 c7 -10 -63 24 -78 39 -6 6 8 1 31 -10 23 -11 44 -24 47 -29z m-1854 -286 c27 -28 40 -32 40 -11 0 26 21 29 44 7 26 -25 41 -27 32 -6 -9 25 23 30 52 8 27 -20 27 -20 43 0 l16 21 42 -22 42 -22 19 22 18 23 24 -22 c27 -26 71 -26 90 -1 9 13 17 15 28 8 13 -8 12 -10 -2 -10 -26 0 -22 -26 8 -49 43 -34 71 -26 37 11 -10 12 -12 18 -4 18 8 0 10 7 6 20 -9 29 22 26 60 -6 l30 -25 -28 12 c-33 15 -44 6 -30 -24 19 -38 22 -56 13 -62 -14 -9 -92 28 -114 54 -11 11 -25 21 -33 21 -16 0 -16 -1 1 -36 8 -15 12 -32 9 -37 -7 -11 -28 13 -55 62 -19 34 -48 42 -48 13 0 -11 9 -27 20 -37 21 -19 27 -45 10 -45 -5 0 -17 12 -27 26 -32 46 -65 74 -89 74 -15 0 -24 -6 -24 -15 0 -8 6 -15 13 -15 8 0 8 -3 -2 -9 -8 -5 -11 -16 -7 -27 4 -13 0 -11 -13 6 -38 48 -51 60 -66 60 -22 0 -19 -14 10 -48 41 -49 29 -58 -19 -14 -55 50 -86 68 -86 49 0 -7 11 -24 25 -37 14 -13 25 -27 25 -32 0 -19 -25 -5 -66 37 -24 25 -48 45 -53 45 -28 0 -17 -27 59 -147 13 -20 13 -25 -2 -39 -15 -15 -20 -13 -67 31 -28 27 -53 46 -56 44 -2 -3 2 -23 10 -44 7 -22 10 -44 6 -48 -4 -4 -27 -1 -51 7 -24 8 -47 13 -51 10 -10 -6 -59 54 -59 72 0 9 17 4 59 -19 33 -17 62 -29 66 -26 3 4 -12 43 -34 88 -46 91 -46 91 -27 91 8 0 30 -21 49 -47 42 -57 85 -99 93 -90 3 3 -5 27 -19 54 -31 60 -39 82 -31 94 10 17 40 9 64 -16z m300 -109 c-6 -6 -17 -5 -32 2 -18 8 -19 11 -5 11 9 1 17 9 17 19 1 15 2 15 15 -2 10 -13 12 -23 5 -30z"/>
<path d="M2703 855 c-45 -19 -93 -89 -93 -135 0 -47 22 -66 84 -73 26 -2 61 -14 76 -26 27 -19 29 -20 34 -3 4 10 20 28 36 40 23 18 30 30 30 58 0 49 -22 95 -59 127 -36 30 -61 33 -108 12z m61 -21 c28 -11 17 -24 -20 -24 -31 0 -35 2 -24 15 14 17 21 18 44 9z m6 -64 c0 -5 -2 -10 -4 -10 -3 0 -8 5 -11 10 -3 6 -1 10 4 10 6 0 11 -4 11 -10z m-75 -40 c4 -6 11 -8 16 -5 5 4 9 2 9 -3 0 -6 -7 -13 -16 -16 -25 -10 -74 -7 -74 4 0 6 11 8 25 4 20 -5 24 -3 19 10 -7 17 11 22 21 6z m133 -28 c-11 -2 -26 -1 -35 2 -12 5 -13 9 -3 21 10 13 15 12 35 -3 22 -16 22 -17 3 -20z m-121 -29 c-4 -3 -10 -3 -14 0 -3 4 0 7 7 7 7 0 10 -3 7 -7z"/>
<path d="M2738 823 c7 -3 16 -2 19 1 4 3 -2 6 -13 5 -11 0 -14 -3 -6 -6z"/>
<path d="M2997 754 c-8 -8 3 -34 14 -34 11 0 12 27 0 34 -4 3 -11 3 -14 0z"/>
<path d="M2600 490 l0 -90 -25 16 c-31 20 -63 10 -71 -22 -9 -35 18 -69 79 -101 47 -25 62 -28 147 -27 105 1 172 24 210 72 38 47 17 99 -34 86 l-26 -6 0 81 0 81 -140 0 -140 0 0 -90z"/>
<path d="M3006 393 c-38 -46 -39 -89 -5 -115 23 -17 30 -18 50 -8 13 7 27 18 31 24 16 23 7 65 -20 99 l-28 35 -28 -35z m62 -72 c-2 -25 -8 -37 -20 -39 -16 -3 -18 5 -18 54 0 57 0 57 20 39 15 -14 20 -29 18 -54z"/>
</g>
<g id="layer109" fill="#f18280" stroke="none">
<path d="M0 695 l0 -695 1750 0 1750 0 0 695 0 695 -1750 0 -1750 0 0 -695z m3200 -20 l0 -385 -37 1 c-37 1 -37 2 -8 8 l30 6 3 373 2 372 -375 0 -375 0 0 -374 0 -375 33 -4 c28 -3 26 -4 -10 -5 l-43 -2 0 385 0 385 390 0 390 0 0 -385z m-130 140 c41 -26 66 -79 55 -116 -4 -11 -9 -18 -12 -15 -3 3 -15 -1 -25 -9 -11 -7 -27 -11 -34 -8 -11 4 -14 -14 -14 -100 0 -104 0 -105 37 -158 62 -90 42 -159 -46 -159 -42 0 -54 7 -70 37 l-11 22 -36 -24 c-73 -50 -244 -58 -336 -17 -54 24 -96 68 -104 109 -5 26 -1 37 19 57 15 14 35 26 47 26 19 0 20 6 20 128 0 114 3 132 24 177 26 53 21 74 -13 56 -17 -10 -21 -9 -21 4 0 8 9 24 20 35 20 20 42 18 71 -7 15 -12 21 -11 50 6 43 26 90 27 120 2 22 -17 26 -18 41 -4 21 19 54 9 61 -18 4 -16 2 -19 -14 -14 -15 5 -19 1 -19 -15 0 -12 5 -30 11 -41 5 -11 11 -86 13 -167 l2 -147 34 -5 c26 -4 36 -11 40 -30 l6 -25 13 23 c17 32 13 279 -6 308 -12 18 -11 23 2 34 23 19 57 -14 48 -48 -4 -16 -2 -23 5 -18 6 3 12 1 14 -5 4 -12 58 31 58 46 0 6 -4 3 -10 -5 -8 -12 -10 -12 -16 3 -3 10 -26 27 -51 39 -24 11 -42 23 -39 25 5 6 66 -25 89 -45 15 -13 17 -13 17 0 0 16 -33 49 -67 67 -19 10 -23 19 -21 54 l1 42 4 -38 c4 -31 11 -42 43 -62z m-109 8 c-29 -36 -26 -64 9 -98 17 -16 30 -33 30 -39 0 -5 -16 5 -35 24 -38 37 -47 87 -20 110 8 7 15 24 15 39 1 23 2 24 11 8 8 -13 5 -24 -10 -44z m-1721 -358 c27 -28 40 -32 40 -11 0 26 21 29 51 7 20 -15 27 -17 23 -6 -10 25 25 30 54 8 l27 -20 17 21 17 21 41 -22 42 -23 18 22 17 21 29 -20 c34 -24 69 -24 87 1 12 16 14 16 39 -3 33 -26 41 -26 33 -1 -9 27 18 27 57 -1 32 -23 32 -38 -1 -18 -26 17 -39 4 -22 -23 17 -27 22 -56 11 -63 -14 -9 -92 28 -114 54 -11 11 -25 21 -33 21 -16 0 -16 0 3 -39 9 -18 14 -35 11 -38 -10 -9 -27 8 -47 48 -11 21 -22 39 -24 39 -3 0 -11 3 -20 6 -24 9 -21 -29 4 -51 21 -19 27 -45 10 -45 -5 0 -17 12 -27 26 -32 46 -65 74 -89 74 -28 0 -31 -17 -6 -36 16 -13 16 -14 0 -8 -22 8 -23 0 -2 -20 20 -21 34 -20 34 1 0 16 1 16 17 0 13 -13 14 -20 6 -28 -17 -17 -70 7 -91 40 -19 32 -42 51 -59 51 -20 0 -16 -15 13 -49 44 -53 22 -53 -41 0 -64 56 -90 50 -34 -7 52 -54 8 -44 -48 11 -25 25 -49 45 -54 45 -26 0 -14 -29 61 -147 11 -18 12 -24 0 -37 -12 -15 -15 -15 -39 0 -14 9 -38 30 -53 47 -34 38 -41 33 -23 -18 18 -52 6 -63 -46 -42 -23 9 -45 14 -49 12 -11 -6 -60 52 -60 71 0 9 17 4 59 -19 33 -17 62 -29 66 -25 4 3 -12 43 -36 88 -32 63 -39 84 -29 90 9 6 26 -9 55 -49 83 -109 116 -121 64 -23 -17 34 -29 68 -26 76 9 24 40 19 67 -9z"/>
<path d="M2702 853 c-45 -22 -83 -74 -89 -123 -8 -55 15 -80 72 -80 28 0 54 -8 79 -25 26 -17 36 -20 36 -10 0 7 13 23 30 35 16 12 33 32 36 46 10 41 -15 111 -53 144 -38 34 -63 37 -111 13z m76 -30 c2 -9 -8 -13 -33 -13 -33 0 -36 2 -25 15 15 18 51 16 58 -2z m-8 -53 c0 -5 -2 -10 -4 -10 -3 0 -8 5 -11 10 -3 6 -1 10 4 10 6 0 11 -4 11 -10z m-51 -46 c10 -9 -17 -22 -56 -27 -41 -5 -42 -4 -31 16 7 14 13 17 16 9 2 -6 10 -12 18 -12 8 0 11 6 7 16 -5 13 -2 15 18 9 13 -4 26 -9 28 -11z m131 -23 c0 -13 -59 1 -72 17 -9 10 -9 13 -1 9 6 -4 14 -3 18 3 6 10 55 -16 55 -29z m-143 -27 c-3 -3 -12 -4 -19 -1 -8 3 -5 6 6 6 11 1 17 -2 13 -5z m98 -12 c-3 -3 -11 0 -18 7 -9 10 -8 11 6 5 10 -3 15 -9 12 -12z"/>
<path d="M2600 490 l0 -89 -29 17 c-28 16 -31 15 -50 -2 -41 -37 -18 -82 62 -123 102 -54 300 -29 357 45 38 47 17 99 -34 86 l-26 -6 0 81 0 81 -140 0 -140 0 0 -90z"/>
<path d="M3001 383 c-36 -53 -37 -60 -15 -91 31 -45 104 -17 104 40 0 14 -13 42 -29 62 l-29 36 -31 -47z m71 -43 c8 -22 -9 -60 -27 -60 -12 0 -15 13 -15 61 l0 62 18 -24 c10 -13 21 -31 24 -39z"/>
<path d="M1710 446 c0 -17 46 -56 66 -56 22 0 16 16 -17 44 -34 29 -49 33 -49 12z"/>
</g>
<g id="layer110" fill="#da9998" stroke="none">
<path d="M0 695 l0 -695 1750 0 1750 0 0 695 0 695 -1750 0 -1750 0 0 -695z m3200 -20 l0 -385 -37 1 c-36 1 -36 2 -9 8 l29 6 1 372 1 373 -372 0 -373 0 0 -374 0 -375 33 -4 c28 -3 26 -4 -10 -5 l-43 -2 0 385 0 385 390 0 390 0 0 -385z m-131 141 c21 -14 43 -38 50 -54 14 -33 12 -77 -4 -77 -5 -1 -21 -7 -35 -15 -14 -7 -27 -11 -30 -9 -3 2 -6 -41 -8 -97 l-3 -101 38 -54 c62 -90 42 -159 -46 -159 -42 0 -54 7 -70 37 l-11 22 -36 -24 c-73 -49 -243 -58 -336 -18 -52 24 -108 85 -108 119 0 30 41 74 70 74 19 0 20 6 20 128 0 105 4 135 20 171 28 60 26 73 -5 61 -31 -12 -35 10 -6 39 21 21 52 19 72 -5 9 -11 17 -10 47 6 47 25 93 25 125 0 22 -17 26 -18 37 -5 17 21 47 19 60 -4 15 -28 13 -34 -11 -28 -19 5 -20 3 -14 -26 12 -62 24 -183 24 -266 1 -76 3 -83 20 -78 23 6 51 -10 51 -28 0 -20 16 -19 24 1 3 9 6 64 6 123 l0 108 -40 46 c-43 48 -53 94 -25 117 8 7 15 24 15 39 1 23 2 24 11 8 8 -13 5 -24 -10 -46 -29 -40 -26 -58 14 -102 19 -22 35 -34 35 -27 0 6 -8 20 -17 30 -15 17 -16 20 0 35 15 16 18 15 37 -2 14 -13 18 -25 13 -43 -4 -17 -2 -23 6 -18 6 4 11 3 11 -3 0 -14 27 -3 34 15 9 24 -3 40 -49 62 -25 12 -45 26 -45 31 0 14 88 -37 106 -62 l16 -22 -7 25 c-9 32 -33 58 -67 76 -24 13 -28 20 -26 57 l1 42 4 -38 c4 -31 11 -42 42 -61z m-1829 -351 c27 -28 40 -32 40 -11 0 26 21 29 51 7 20 -15 27 -17 23 -6 -10 25 25 30 54 8 l27 -20 17 21 17 21 41 -22 42 -23 18 22 17 21 29 -20 c35 -25 69 -24 88 3 14 19 15 19 38 -3 30 -28 41 -29 33 -3 -9 27 18 27 57 -1 32 -23 32 -38 -1 -18 -26 17 -39 4 -22 -23 17 -27 22 -56 11 -63 -14 -9 -92 28 -114 54 -11 11 -25 21 -33 21 -16 0 -16 0 3 -39 9 -18 14 -35 11 -38 -10 -9 -27 8 -47 48 -11 21 -22 39 -24 39 -3 0 -11 3 -20 6 -24 9 -21 -29 4 -51 21 -19 27 -45 10 -45 -5 0 -17 12 -27 26 -32 46 -65 74 -89 74 -13 0 -24 -6 -24 -13 0 -11 36 -41 52 -42 4 0 13 -6 19 -12 10 -10 10 -16 2 -24 -17 -17 -70 7 -91 40 -19 32 -42 51 -59 51 -20 0 -16 -15 13 -49 45 -54 21 -54 -41 0 -64 56 -90 51 -34 -7 52 -54 8 -44 -48 11 -25 25 -49 45 -54 45 -26 0 -14 -29 61 -147 11 -18 12 -24 1 -37 -19 -23 -24 -21 -76 30 -26 25 -49 44 -51 42 -2 -2 3 -22 11 -43 18 -52 6 -63 -46 -42 -23 9 -45 14 -49 12 -11 -6 -60 52 -60 71 0 9 17 4 59 -19 33 -17 62 -29 66 -25 4 3 -12 43 -36 88 -32 63 -39 84 -30 93 10 9 14 8 22 -6 19 -33 110 -137 120 -137 12 0 13 -3 -25 73 -15 31 -26 64 -22 72 8 23 40 18 66 -10z"/>
<path d="M2700 848 c-78 -40 -118 -147 -68 -182 12 -9 38 -16 58 -16 19 0 50 -9 67 -20 l33 -20 40 40 c46 45 50 72 21 135 -36 79 -82 98 -151 63z m78 -20 c20 -20 14 -24 -28 -20 -33 3 -39 7 -29 18 14 17 41 18 57 2z m-8 -58 c0 -5 -2 -10 -4 -10 -3 0 -8 5 -11 10 -3 6 -1 10 4 10 6 0 11 -4 11 -10z m-50 -48 c0 -14 -9 -18 -63 -26 -36 -5 -37 -4 -25 17 7 14 13 17 16 9 2 -6 10 -12 18 -12 7 0 11 6 8 14 -4 10 2 14 20 12 14 0 26 -7 26 -14z m130 -21 c0 -14 -69 1 -75 16 -5 13 -3 14 10 3 9 -7 15 -9 14 -4 -4 21 2 23 26 8 14 -9 25 -19 25 -23z m-150 -31 c-19 -13 -30 -13 -30 0 0 6 10 10 23 10 18 0 19 -2 7 -10z m110 0 c13 -8 13 -10 -2 -10 -9 0 -20 5 -23 10 -8 13 5 13 25 0z"/>
<path d="M1715 450 c-8 -13 40 -60 62 -60 13 0 9 8 -17 35 -38 39 -37 39 -45 25z"/>
</g>
<g id="layer111" fill="#f88e8e" stroke="none">
<path d="M0 695 l0 -695 1750 0 1750 0 0 695 0 695 -1750 0 -1750 0 0 -695z m3178 369 l22 -6 0 -384 0 -384 -37 1 c-36 1 -36 2 -9 8 l29 6 1 372 1 373 -372 0 -373 0 0 -374 0 -375 33 -4 c28 -3 26 -4 -10 -5 l-43 -2 0 384 c0 298 3 385 13 389 17 8 718 8 745 1z m-109 -248 c21 -14 43 -38 50 -54 14 -33 12 -77 -4 -77 -5 -1 -21 -7 -35 -15 -14 -7 -27 -11 -30 -9 -3 2 -6 -41 -8 -97 l-3 -101 38 -54 c62 -90 42 -159 -46 -159 -42 0 -54 7 -70 37 l-11 22 -36 -24 c-73 -49 -243 -58 -336 -18 -52 24 -108 85 -108 119 0 30 41 74 70 74 19 0 20 6 20 128 0 105 4 135 20 171 28 60 26 73 -5 61 -31 -12 -35 10 -6 39 21 21 52 19 72 -5 9 -11 17 -10 47 6 47 25 93 25 125 0 22 -17 26 -18 37 -5 17 21 47 19 60 -4 15 -28 13 -34 -11 -28 -19 5 -20 3 -14 -26 12 -62 24 -183 24 -266 1 -76 3 -83 20 -78 23 6 51 -10 51 -28 0 -20 16 -19 24 1 3 9 6 64 6 123 l0 108 -40 46 c-43 48 -53 94 -25 117 8 7 15 24 15 39 1 23 2 24 11 8 8 -13 5 -24 -10 -46 -29 -40 -26 -58 14 -102 19 -22 35 -34 35 -27 0 6 -8 20 -17 30 -15 17 -16 20 0 35 15 16 18 15 37 -2 14 -13 18 -25 13 -43 -4 -17 -2 -23 6 -18 6 4 11 3 11 -3 0 -14 27 -3 34 15 9 24 -3 40 -49 62 -25 12 -45 26 -45 31 0 14 88 -37 106 -62 l16 -22 -7 25 c-9 32 -33 58 -67 76 -24 13 -28 20 -26 57 l1 42 4 -38 c4 -31 11 -42 42 -61z m-1829 -351 c27 -28 40 -32 40 -11 0 26 21 29 50 8 27 -20 28 -20 23 -2 -4 16 0 20 19 20 14 0 33 -9 43 -20 17 -19 18 -19 36 3 l18 22 42 -22 41 -23 18 22 c17 21 17 21 46 2 37 -24 70 -24 88 1 14 20 15 20 38 -2 30 -28 41 -29 33 -4 -9 31 9 32 49 5 38 -26 45 -46 7 -23 -28 18 -38 4 -20 -29 9 -15 15 -34 14 -42 -1 -26 -54 -13 -102 24 -48 38 -73 39 -48 3 8 -12 15 -27 15 -34 0 -24 -21 -13 -38 19 -20 37 -48 68 -62 68 -17 0 -11 -36 10 -55 22 -20 27 -49 8 -43 -7 3 -23 20 -36 39 -35 51 -102 80 -102 44 0 -8 7 -15 15 -15 8 0 15 -5 15 -11 0 -5 4 -8 9 -5 12 8 44 -31 36 -44 -16 -26 -105 23 -105 57 0 15 -47 40 -56 30 -4 -4 5 -22 20 -42 45 -58 25 -60 -39 -4 -64 56 -90 51 -34 -7 28 -29 30 -34 13 -34 -11 0 -39 20 -62 45 -73 78 -86 48 -21 -54 22 -35 39 -71 37 -80 -6 -31 -37 -22 -84 24 -25 26 -48 45 -50 42 -2 -2 3 -21 12 -42 21 -51 8 -63 -47 -42 -23 9 -45 14 -49 12 -11 -7 -60 52 -60 71 0 19 2 18 57 -16 44 -28 73 -38 73 -24 0 3 -19 42 -41 86 -31 59 -39 82 -31 90 7 7 13 10 15 7 2 -2 24 -31 49 -64 81 -107 107 -115 57 -17 -18 33 -29 68 -26 76 9 24 40 19 67 -9z"/>
<path d="M2700 848 c-78 -40 -118 -147 -68 -182 12 -9 38 -16 58 -16 19 0 50 -9 67 -20 l33 -20 40 40 c46 45 50 72 21 135 -36 79 -82 98 -151 63z m78 -20 c20 -20 14 -24 -28 -20 -33 3 -39 7 -29 18 14 17 41 18 57 2z m-8 -58 c0 -5 -2 -10 -4 -10 -3 0 -8 5 -11 10 -3 6 -1 10 4 10 6 0 11 -4 11 -10z m-50 -48 c0 -14 -9 -18 -63 -26 -36 -5 -37 -4 -25 17 7 14 13 17 16 9 2 -6 10 -12 18 -12 7 0 11 6 8 14 -4 10 2 14 20 12 14 0 26 -7 26 -14z m130 -21 c0 -14 -69 1 -75 16 -5 13 -3 14 10 3 9 -7 15 -9 14 -4 -4 21 2 23 26 8 14 -9 25 -19 25 -23z m-144 -26 c-23 -17 -36 -19 -36 -6 0 5 10 12 23 14 12 2 24 5 27 5 3 1 -4 -5 -14 -13z m104 -5 c13 -8 13 -10 -2 -10 -9 0 -20 5 -23 10 -8 13 5 13 25 0z"/>
<path d="M2743 823 c4 -3 10 -3 14 0 3 4 0 7 -7 7 -7 0 -10 -3 -7 -7z"/>
<path d="M2995 740 c4 -6 11 -8 16 -5 14 9 11 15 -7 15 -8 0 -12 -5 -9 -10z"/>
<path d="M2600 490 l0 -89 -30 17 c-28 16 -30 16 -51 -5 -16 -16 -20 -28 -15 -47 8 -34 80 -80 147 -96 96 -23 245 12 289 68 38 47 17 99 -34 86 l-26 -6 0 81 0 81 -140 0 -140 0 0 -90z"/>
<path d="M3001 383 c-36 -53 -37 -60 -15 -91 19 -27 64 -29 87 -4 27 30 20 63 -23 120 l-18 22 -31 -47z m79 -56 c0 -18 -21 -47 -35 -47 -12 0 -15 14 -15 62 l0 62 25 -34 c14 -19 25 -38 25 -43z"/>
<path d="M1485 390 c21 -24 32 -25 32 -5 0 8 -4 12 -8 9 -4 -2 -10 0 -14 6 -3 5 -11 10 -17 10 -6 0 -3 -9 7 -20z"/>
</g>
<g id="layer112" fill="#e9a5a3" stroke="none">
<path d="M0 695 l0 -695 1750 0 1750 0 0 695 0 695 -1750 0 -1750 0 0 -695z m3178 369 l22 -6 0 -384 0 -384 -37 1 c-31 2 -33 3 -10 6 l27 4 0 375 0 374 -370 0 -370 0 0 -374 0 -375 33 -4 c28 -3 26 -4 -10 -5 l-43 -2 0 384 c0 298 3 385 13 389 17 8 718 8 745 1z m-120 -238 c46 -24 65 -53 66 -98 1 -24 -3 -43 -9 -44 -5 -1 -25 -8 -43 -15 l-34 -14 4 -100 c3 -97 4 -102 41 -155 20 -30 37 -65 37 -78 0 -72 -135 -102 -160 -36 l-9 24 -36 -24 c-66 -45 -207 -60 -299 -32 -148 45 -196 162 -83 205 l27 11 0 122 c0 101 4 131 20 167 27 58 25 65 -9 58 -25 -5 -28 -4 -24 14 3 11 17 27 30 36 22 15 26 15 52 -5 28 -20 28 -20 57 -1 38 25 94 24 127 -1 22 -17 26 -18 37 -5 17 21 47 19 60 -4 15 -29 12 -40 -10 -34 -22 6 -27 -15 -10 -46 11 -22 18 -102 19 -228 l1 -92 27 2 c20 1 31 -4 38 -20 23 -53 35 -13 35 123 l0 100 -45 53 c-25 29 -45 58 -45 65 0 8 9 25 21 40 13 17 19 36 16 51 -5 31 9 33 17 3 4 -15 -1 -33 -14 -50 -28 -38 -25 -55 15 -99 19 -22 35 -33 35 -25 0 7 -7 19 -15 26 -29 24 -7 58 30 44 17 -7 28 -36 20 -55 -4 -10 2 -15 19 -17 25 -2 39 18 30 41 -2 7 -25 23 -49 35 -25 12 -45 26 -45 32 0 10 62 -22 93 -48 15 -13 17 -13 17 1 0 16 -54 67 -71 67 -15 0 -30 51 -22 74 7 17 8 14 11 -17 2 -29 9 -40 30 -51z m-1818 -361 c27 -28 40 -32 40 -11 0 26 21 29 50 8 27 -20 28 -20 23 -2 -4 16 0 20 19 20 14 0 33 -9 43 -20 17 -19 18 -19 36 3 l18 22 42 -22 41 -23 18 22 c17 21 17 21 46 2 37 -24 70 -24 88 1 14 20 15 20 38 -2 30 -28 41 -29 33 -4 -9 31 9 32 49 5 38 -26 45 -46 7 -23 -28 18 -38 4 -20 -29 9 -15 15 -34 14 -42 -1 -26 -54 -13 -102 24 -48 38 -73 39 -48 3 8 -12 15 -27 15 -34 0 -24 -21 -13 -38 19 -20 37 -48 68 -62 68 -17 0 -11 -36 10 -55 22 -20 27 -49 8 -43 -7 3 -23 20 -36 39 -35 51 -102 80 -102 44 0 -8 6 -15 14 -15 24 0 70 -45 62 -59 -17 -26 -106 21 -106 56 0 15 -47 40 -56 30 -4 -4 5 -22 20 -42 45 -58 25 -60 -39 -4 -64 56 -90 51 -34 -7 28 -29 30 -34 13 -34 -11 0 -39 20 -62 45 -73 78 -86 48 -21 -54 22 -35 39 -71 37 -80 -6 -31 -37 -22 -84 24 -25 26 -48 45 -50 42 -2 -2 3 -21 12 -42 21 -51 8 -63 -47 -42 -23 9 -45 14 -49 12 -11 -7 -60 52 -60 71 0 19 2 18 57 -16 44 -28 73 -38 73 -24 0 3 -19 42 -41 86 -31 59 -39 82 -31 90 7 7 13 10 15 7 2 -2 24 -31 49 -64 81 -107 107 -115 57 -17 -18 33 -29 68 -26 76 9 24 40 19 67 -9z"/>
<path d="M2700 847 c-111 -58 -119 -197 -12 -197 20 0 51 -9 69 -20 l32 -19 41 40 c22 22 40 47 40 57 0 37 -23 95 -48 122 -38 41 -68 46 -122 17z m78 -19 c20 -20 14 -24 -28 -23 -22 0 -40 2 -40 6 0 11 25 29 40 29 9 0 21 -5 28 -12z m-8 -63 c0 -8 -2 -15 -4 -15 -2 0 -6 7 -10 15 -3 8 -1 15 4 15 6 0 10 -7 10 -15z m-52 -45 c-2 -10 -19 -17 -48 -21 -53 -8 -60 -4 -37 18 11 11 17 13 17 5 0 -7 5 -12 10 -12 6 0 10 7 10 15 0 10 9 14 25 13 17 -2 25 -8 23 -18z m132 -21 c0 -10 -51 -6 -69 5 -6 4 -11 12 -11 18 0 6 6 5 16 -2 8 -8 14 -9 13 -4 -1 5 -1 12 0 17 1 10 51 -23 51 -34z m-144 -24 c-23 -17 -36 -19 -36 -6 0 5 8 12 18 14 32 9 37 6 18 -8z m104 -5 c13 -8 13 -10 -2 -10 -9 0 -20 5 -23 10 -8 13 5 13 25 0z"/>
<path d="M2600 491 l0 -90 -27 14 c-19 10 -32 11 -45 4 -69 -37 7 -123 131 -150 62 -13 171 0 223 27 67 35 98 95 63 124 -12 10 -21 10 -40 2 l-25 -12 0 85 0 85 -140 0 -140 0 0 -89z"/>
<path d="M3005 390 c-32 -46 -35 -88 -9 -107 29 -21 33 -16 36 55 l3 67 24 -39 c24 -38 24 -40 8 -70 l-17 -31 20 24 c27 31 25 48 -8 99 l-29 43 -28 -41z"/>
</g>
<g id="layer113" fill="#f4b2b2" stroke="none">
<path d="M0 695 l0 -695 1750 0 1750 0 0 695 0 695 -1750 0 -1750 0 0 -695z m3198 -17 l2 -388 -37 1 c-31 2 -33 3 -10 6 l27 4 0 375 0 374 -370 0 -370 0 0 -374 0 -375 38 -4 c34 -3 33 -4 -10 -5 l-48 -2 0 383 c0 211 3 387 7 390 4 4 178 6 387 5 l381 -3 3 -387z m-131 142 c18 -10 39 -30 48 -44 17 -26 17 -90 0 -92 -5 -1 -25 -8 -43 -15 l-34 -14 4 -100 c3 -97 4 -102 41 -154 43 -62 46 -89 14 -127 -18 -21 -32 -27 -64 -27 -49 0 -61 7 -74 40 l-9 24 -26 -20 c-61 -48 -212 -66 -308 -37 -148 45 -196 162 -83 205 l27 11 0 122 c0 101 4 131 20 167 26 57 25 64 -9 56 -26 -6 -29 -4 -24 15 3 12 17 28 30 37 22 15 26 15 52 -5 28 -20 28 -20 57 -1 37 24 95 24 125 0 19 -16 25 -16 37 -5 19 20 50 17 62 -5 15 -29 12 -40 -10 -34 -23 6 -27 -15 -9 -49 12 -22 17 -86 18 -226 l1 -92 24 6 c19 4 28 0 42 -21 16 -25 19 -26 25 -9 4 11 8 67 8 125 l1 105 -45 53 c-25 29 -45 58 -45 65 0 8 9 25 21 40 14 18 19 34 15 51 -4 14 -2 25 3 25 20 0 20 -45 1 -72 -28 -38 -25 -59 15 -98 35 -34 50 -33 19 1 -18 20 -12 49 10 49 24 0 48 -31 42 -54 -4 -17 0 -22 18 -24 28 -2 42 24 24 45 -6 8 -29 23 -50 34 -21 11 -38 23 -38 28 0 11 92 -36 102 -53 11 -17 10 2 -2 24 -5 10 -25 28 -44 40 -39 24 -51 49 -39 83 6 19 8 17 13 -16 4 -28 13 -42 37 -57z m-1823 -359 c22 -24 36 -27 36 -7 0 26 21 29 49 8 l27 -20 0 21 c-1 30 18 31 50 4 l28 -24 17 21 18 21 42 -22 41 -23 18 22 c17 21 17 21 46 2 37 -24 70 -24 88 1 14 20 15 20 38 -2 30 -28 38 -29 31 -4 -8 30 11 32 51 5 38 -26 45 -46 7 -23 -27 18 -37 5 -18 -24 15 -24 17 -50 4 -63 -11 -11 -67 14 -104 46 -41 36 -51 33 -33 -10 7 -17 9 -34 5 -38 -8 -9 -55 44 -55 63 0 16 -38 40 -48 30 -3 -3 -1 -15 6 -25 7 -11 17 -29 24 -40 7 -10 9 -22 5 -26 -9 -9 -57 35 -57 52 0 15 -50 44 -75 44 -8 0 -15 -7 -15 -15 0 -8 6 -15 14 -15 8 0 27 -11 42 -23 29 -25 26 -47 -6 -47 -22 0 -80 46 -80 64 0 15 -47 42 -56 33 -4 -4 5 -22 20 -42 45 -58 25 -60 -39 -4 -64 56 -90 51 -34 -7 28 -29 30 -34 13 -34 -10 0 -39 20 -63 45 -74 76 -85 47 -20 -53 65 -100 36 -137 -47 -58 -26 25 -49 44 -51 42 -2 -1 4 -20 13 -41 25 -60 9 -65 -80 -29 -15 6 -18 4 -12 -7 4 -8 -8 3 -28 23 -31 32 -47 68 -31 68 2 0 26 -13 52 -30 44 -28 73 -38 73 -24 0 4 -19 42 -42 85 -32 61 -39 82 -30 91 6 6 13 10 15 7 2 -2 24 -31 49 -64 50 -66 75 -91 84 -82 3 3 -5 25 -19 49 -34 59 -41 86 -27 103 14 17 34 9 64 -24z"/>
<path d="M2725 859 c-42 -12 -82 -49 -100 -92 -31 -76 -13 -107 69 -118 32 -4 66 -15 75 -23 17 -15 21 -14 53 17 20 18 39 43 42 55 16 51 -39 153 -89 165 -11 3 -33 1 -50 -4z m62 -45 c2 -6 -15 -10 -37 -9 -45 0 -46 1 -23 27 14 16 19 16 37 5 11 -8 21 -18 23 -23z m-17 -49 c0 -8 -4 -15 -8 -15 -5 0 -9 7 -9 15 0 8 4 15 9 15 4 0 8 -7 8 -15z m-50 -45 c-6 -11 -25 -20 -52 -22 -52 -6 -57 -3 -35 19 11 11 17 13 17 5 0 -7 5 -12 10 -12 6 0 10 6 10 14 0 10 10 14 30 14 24 -1 28 -4 20 -18z m130 -17 c0 -7 -9 -13 -21 -13 -26 0 -59 17 -59 31 0 6 4 8 9 4 5 -3 12 -1 15 4 8 12 56 -10 56 -26z m-142 -29 c-11 -11 -23 -14 -35 -9 -16 7 -15 9 7 15 40 12 45 11 28 -6z m102 -4 c13 -8 13 -10 -2 -10 -9 0 -20 5 -23 10 -8 13 5 13 25 0z"/>
<path d="M3000 739 c0 -5 5 -7 10 -4 6 3 10 8 10 11 0 2 -4 4 -10 4 -5 0 -10 -5 -10 -11z"/>
<path d="M2600 491 l0 -89 -29 11 c-85 32 -93 -58 -8 -107 62 -37 139 -49 223 -36 105 17 174 66 174 124 0 22 -30 35 -57 25 -23 -8 -23 -8 -23 76 l0 85 -140 0 -140 0 0 -89z"/>
<path d="M3006 389 c-35 -41 -38 -84 -8 -106 28 -22 32 -15 32 53 0 56 2 65 14 55 8 -6 19 -25 26 -41 10 -25 10 -34 -4 -57 l-17 -28 20 24 c12 13 21 30 21 39 0 14 -47 92 -55 92 -2 0 -15 -14 -29 -31z"/>
</g>
<g id="layer114" fill="#e8d7b5" stroke="none">
<path d="M0 695 l0 -695 1750 0 1750 0 0 695 0 695 -1750 0 -1750 0 0 -695z m3198 -17 l2 -388 -35 0 c-19 0 -35 5 -35 11 0 7 10 9 25 7 l25 -5 0 373 0 374 -370 0 -370 0 0 -372 0 -373 34 -1 34 0 -19 30 c-11 17 -19 42 -19 55 0 29 36 71 61 71 10 0 20 4 23 8 3 5 6 66 7 137 1 106 5 134 20 159 28 46 25 59 -11 51 -28 -6 -29 -5 -21 17 4 13 20 30 34 38 25 14 28 13 48 -7 21 -21 22 -21 53 -2 41 25 96 24 129 -1 21 -17 26 -18 31 -5 8 22 53 19 66 -4 15 -29 12 -40 -10 -34 -24 6 -25 -1 -5 -58 9 -24 15 -59 14 -79 -1 -19 -1 -78 0 -131 1 -96 1 -96 25 -92 18 4 29 -2 42 -22 16 -25 19 -26 25 -9 4 11 8 67 8 125 l1 105 -45 53 c-25 29 -45 58 -45 64 0 7 9 27 20 45 12 20 18 42 15 53 -4 10 -2 19 4 19 6 0 14 -11 17 -26 5 -18 0 -31 -16 -49 -16 -17 -21 -31 -17 -47 7 -25 67 -89 67 -71 0 6 -7 16 -15 23 -34 28 -5 61 35 40 17 -9 21 -18 17 -39 -5 -22 -2 -27 16 -28 53 -4 38 46 -23 77 -22 11 -40 25 -40 30 0 12 97 -37 103 -53 4 -9 6 -9 6 1 1 12 -9 23 -76 82 -24 20 -31 64 -13 75 6 4 10 -8 10 -29 0 -29 5 -38 29 -51 45 -23 71 -62 71 -107 0 -32 -3 -39 -15 -34 -8 3 -15 1 -15 -4 0 -4 -13 -11 -30 -15 l-30 -7 0 -81 c1 -90 13 -132 53 -191 32 -46 34 -74 7 -109 -38 -48 -118 -43 -142 8 -10 22 -13 23 -27 11 -48 -41 -84 -51 -201 -51 -103 0 -120 2 -160 25 -35 19 -57 23 -97 21 l-53 -3 0 384 c0 212 3 388 7 391 4 4 178 6 387 5 l381 -3 3 -387z m-1951 -217 c26 -25 33 -26 33 -7 0 24 19 29 44 12 22 -14 24 -14 29 4 7 26 20 25 53 -4 l28 -23 17 21 18 21 42 -22 41 -23 18 22 c17 22 18 22 46 3 37 -24 70 -24 88 1 14 19 15 19 38 -3 30 -28 38 -29 31 -4 -8 30 11 32 51 5 38 -26 45 -46 7 -23 -27 18 -37 5 -18 -24 15 -24 17 -50 4 -63 -11 -11 -67 14 -104 46 -41 36 -51 33 -33 -10 7 -17 9 -34 5 -38 -8 -9 -55 44 -55 63 0 16 -38 40 -48 30 -3 -3 -1 -15 6 -25 7 -11 17 -29 24 -40 7 -10 9 -22 5 -26 -8 -9 -57 35 -57 51 0 13 -52 45 -74 45 -9 0 -16 -7 -16 -15 0 -8 6 -15 14 -15 8 0 27 -11 42 -23 29 -25 26 -47 -6 -47 -22 0 -80 46 -80 64 0 15 -47 42 -56 33 -4 -4 5 -22 20 -42 45 -58 25 -60 -39 -4 -64 56 -90 51 -34 -7 28 -29 30 -34 13 -34 -10 0 -39 20 -63 45 -74 76 -85 47 -20 -53 66 -101 37 -135 -49 -57 -29 26 -52 44 -52 41 0 -3 8 -21 17 -41 12 -26 14 -38 6 -46 -11 -11 -25 -8 -87 17 -15 6 -18 4 -12 -7 4 -8 -8 3 -28 23 -31 32 -47 68 -31 68 2 0 26 -13 52 -30 44 -28 73 -38 73 -24 0 4 -19 42 -42 85 -32 61 -39 82 -30 91 6 6 13 10 15 7 2 -2 24 -31 49 -64 74 -98 107 -115 64 -34 -33 63 -40 88 -26 104 13 16 31 10 67 -24z"/>
</g>
<g id="layer115" fill="#f5d3d0" stroke="none">
<path d="M0 695 l0 -695 1750 0 1750 0 0 695 0 695 -1750 0 -1750 0 0 -695z m1440 441 l55 -107 120 3 c136 3 168 -7 263 -83 58 -46 72 -48 72 -14 0 66 51 125 108 125 42 0 139 -52 202 -109 58 -51 65 -84 8 -36 -43 37 -126 75 -161 75 -48 0 -67 -16 -67 -59 0 -36 2 -39 42 -52 96 -31 198 -120 198 -171 0 -40 -78 -50 -147 -19 -51 24 -129 94 -151 137 -18 34 -120 116 -166 134 -39 14 -96 13 -96 -3 0 -7 25 -37 56 -67 94 -93 125 -166 82 -193 -13 -9 -35 -2 -101 31 -47 23 -90 42 -96 42 -27 0 -6 -46 54 -115 36 -41 65 -78 65 -84 0 -14 -30 -22 -49 -12 -17 10 -320 333 -334 357 -12 21 -86 56 -110 52 -28 -4 -34 -45 -13 -86 8 -16 42 -59 76 -96 38 -42 59 -74 56 -83 -3 -8 -6 -19 -6 -24 0 -20 -21 -5 -136 97 -139 124 -191 162 -234 170 -28 6 -30 5 -30 -26 0 -28 13 -45 93 -122 78 -76 89 -91 73 -97 -56 -22 -133 32 -185 128 -49 92 -43 173 13 199 29 13 47 3 113 -60 59 -58 77 -57 68 7 -12 79 26 110 94 75 49 -24 166 -132 184 -168 6 -14 32 -40 57 -58 50 -36 72 -44 47 -16 -10 10 -17 25 -17 33 0 8 -39 75 -86 149 -94 146 -121 209 -103 242 6 10 16 18 22 15 7 -2 37 -52 67 -111z m-614 -108 c24 -23 41 -45 37 -49 -4 -4 -92 -25 -195 -45 -104 -21 -188 -43 -188 -49 0 -5 46 -62 101 -125 198 -225 260 -290 280 -290 29 0 24 16 -27 83 -79 106 -117 198 -84 205 9 1 42 -16 73 -39 45 -31 56 -45 52 -60 -4 -12 8 -43 35 -88 59 -99 82 -164 70 -196 -14 -38 -36 -40 -82 -10 -72 48 -136 114 -315 326 -173 206 -173 207 -221 213 -94 13 -98 16 -141 73 -52 71 -44 85 34 59 45 -16 72 -18 157 -13 57 4 144 15 193 26 144 31 167 28 221 -21z m2372 -350 l2 -388 -35 0 c-19 0 -35 5 -35 11 0 7 10 9 25 7 l25 -5 0 373 0 374 -370 0 -370 0 0 -372 0 -373 34 -1 34 0 -19 30 c-11 17 -19 42 -19 55 0 29 36 71 61 71 10 0 20 4 23 8 3 5 6 66 7 137 1 106 5 134 20 159 28 46 25 59 -11 51 -28 -6 -29 -5 -21 17 4 13 20 30 34 38 25 14 28 13 48 -7 21 -21 22 -21 53 -2 41 25 96 24 129 -1 21 -17 26 -18 31 -5 8 22 53 19 66 -4 15 -29 12 -40 -10 -34 -24 6 -25 -1 -5 -58 9 -24 15 -59 14 -79 -1 -19 -1 -78 0 -131 1 -96 1 -96 25 -92 18 4 29 -2 42 -22 16 -25 19 -26 25 -9 4 11 8 67 8 125 l1 105 -45 53 c-25 29 -45 58 -45 64 0 7 9 27 20 45 12 20 18 42 15 53 -4 10 -2 19 4 19 6 0 14 -11 17 -26 5 -18 0 -31 -16 -49 -16 -17 -21 -31 -17 -47 7 -25 67 -89 67 -71 0 6 -7 16 -15 23 -34 28 -5 61 35 40 17 -9 21 -18 17 -39 -5 -22 -2 -27 16 -28 53 -4 38 46 -23 77 -22 11 -40 25 -40 30 0 12 97 -37 103 -53 4 -9 6 -9 6 1 1 12 -9 23 -76 82 -24 20 -31 64 -13 75 6 4 10 -8 10 -29 0 -29 5 -38 29 -51 45 -23 71 -62 71 -107 0 -32 -3 -39 -15 -34 -8 3 -15 1 -15 -4 0 -4 -13 -11 -30 -15 l-30 -7 0 -81 c1 -90 13 -132 53 -191 32 -46 34 -74 7 -109 -38 -48 -118 -43 -142 8 -10 22 -13 23 -27 11 -48 -41 -84 -51 -201 -51 -103 0 -120 2 -160 25 -35 19 -57 23 -97 21 l-53 -3 0 384 c0 212 3 388 7 391 4 4 178 6 387 5 l381 -3 3 -387z m-1951 -217 c26 -25 33 -26 33 -7 0 24 19 29 44 12 22 -14 24 -14 29 4 7 26 20 25 53 -4 l28 -23 17 21 18 21 42 -22 41 -23 18 22 c17 22 18 22 46 3 37 -24 70 -24 88 1 14 19 15 19 38 -3 30 -28 38 -29 31 -4 -8 30 11 32 51 5 38 -26 45 -46 7 -23 -27 18 -37 5 -18 -24 15 -24 17 -50 4 -63 -11 -11 -67 14 -104 46 -41 36 -51 33 -33 -10 7 -17 9 -34 5 -38 -8 -9 -55 44 -55 63 0 16 -38 40 -48 30 -3 -3 -1 -15 6 -25 7 -11 17 -29 24 -40 7 -10 9 -22 5 -26 -8 -9 -57 35 -57 51 0 13 -52 45 -74 45 -9 0 -16 -7 -16 -15 0 -8 6 -15 14 -15 8 0 27 -11 42 -23 29 -25 26 -47 -6 -47 -22 0 -80 46 -80 64 0 15 -47 42 -56 33 -4 -4 5 -22 20 -42 45 -58 25 -60 -39 -4 -64 56 -90 51 -34 -7 28 -29 30 -34 13 -34 -10 0 -39 20 -63 45 -74 76 -85 47 -20 -53 66 -101 37 -135 -49 -57 -29 26 -52 44 -52 41 0 -3 8 -21 17 -41 12 -26 14 -38 6 -46 -11 -11 -25 -8 -87 17 -15 6 -18 4 -12 -7 4 -8 -8 3 -28 23 -31 32 -47 68 -31 68 2 0 26 -13 52 -30 44 -28 73 -38 73 -24 0 4 -19 42 -42 85 -32 61 -39 82 -30 91 6 6 13 10 15 7 2 -2 24 -31 49 -64 74 -98 107 -115 64 -34 -33 63 -40 88 -26 104 13 16 31 10 67 -24z"/>
<path d="M2677 833 c-42 -32 -73 -99 -63 -138 7 -28 34 -44 45 -28 9 14 65 27 56 13 -4 -6 -17 -15 -29 -20 -18 -7 -16 -9 14 -9 19 -1 48 -9 63 -20 l28 -18 36 36 c30 30 35 42 35 78 -3 116 -99 171 -185 106z m95 0 c28 -25 22 -33 -22 -30 -42 2 -52 19 -22 36 23 14 23 14 44 -6z m-4 -66 c2 -9 -2 -17 -8 -17 -6 0 -8 5 -5 10 3 6 1 10 -4 10 -6 0 -11 5 -11 11 0 17 25 4 28 -14z m-38 -37 c0 -15 -26 -27 -67 -33 -24 -3 -43 -2 -43 2 0 15 23 29 38 24 10 -4 13 -2 8 5 -5 8 4 11 29 10 19 -1 35 -4 35 -8z m120 -27 c0 -7 -9 -13 -21 -13 -26 0 -59 17 -59 31 0 6 4 8 9 4 5 -3 12 -1 16 4 8 14 55 -8 55 -26z m-25 -33 c-3 -5 -12 -10 -20 -10 -8 0 -17 5 -20 10 -4 6 5 10 20 10 15 0 24 -4 20 -10z"/>
<path d="M2600 491 l0 -89 -30 11 c-41 15 -66 0 -63 -39 5 -56 100 -103 214 -103 128 -1 219 40 236 107 8 33 -19 55 -53 42 l-24 -10 0 85 0 85 -140 0 -140 0 0 -89z"/>
<path d="M3006 386 c-29 -39 -33 -77 -10 -100 27 -28 34 -18 34 52 l1 67 24 -30 c13 -16 26 -38 28 -50 4 -19 4 -19 6 1 0 12 -12 38 -28 58 l-29 36 -26 -34z"/>
<path d="M3064 288 c-4 -7 -3 -8 4 -4 7 4 12 9 12 12 0 8 -9 4 -16 -8z"/>
<path d="M1718 454 c-12 -11 4 -35 34 -50 42 -22 43 -13 5 24 -18 18 -36 30 -39 26z"/>
<path d="M1485 390 c10 -11 23 -20 28 -20 6 0 2 9 -8 20 -10 11 -23 20 -28 20 -6 0 -2 -9 8 -20z"/>
</g>
<g id="layer116" fill="#fefefe" stroke="none">
<path d="M0 695 l0 -695 1750 0 1750 0 0 695 0 695 -1750 0 -1750 0 0 -695z m1440 441 l55 -107 120 3 c136 3 168 -7 263 -83 58 -46 72 -48 72 -14 0 66 51 125 108 125 42 0 139 -52 202 -109 58 -51 65 -84 8 -36 -43 37 -126 75 -161 75 -48 0 -67 -16 -67 -59 0 -36 2 -39 42 -52 96 -31 198 -120 198 -171 0 -40 -78 -50 -147 -19 -51 24 -129 94 -151 137 -18 34 -120 116 -166 134 -39 14 -96 13 -96 -3 0 -7 25 -37 56 -67 94 -93 125 -166 82 -193 -13 -9 -35 -2 -101 31 -47 23 -90 42 -96 42 -27 0 -6 -46 54 -115 36 -41 65 -78 65 -84 0 -14 -30 -22 -49 -12 -17 10 -320 333 -334 357 -12 21 -86 56 -110 52 -28 -4 -34 -45 -13 -86 8 -16 42 -59 76 -96 38 -42 59 -74 56 -83 -3 -8 -6 -19 -6 -24 0 -20 -21 -5 -136 97 -139 124 -191 162 -234 170 -28 6 -30 5 -30 -26 0 -28 13 -45 93 -122 78 -76 89 -91 73 -97 -56 -22 -133 32 -185 128 -49 92 -43 173 13 199 29 13 47 3 113 -60 59 -58 77 -57 68 7 -12 79 26 110 94 75 49 -24 166 -132 184 -168 6 -14 32 -40 57 -58 50 -36 72 -44 47 -16 -10 10 -17 25 -17 33 0 8 -39 75 -86 149 -94 146 -121 209 -103 242 6 10 16 18 22 15 7 -2 37 -52 67 -111z m-614 -108 c24 -23 41 -45 37 -49 -4 -4 -92 -25 -195 -45 -104 -21 -188 -43 -188 -49 0 -5 46 -62 101 -125 198 -225 260 -290 280 -290 29 0 24 16 -27 83 -79 106 -117 198 -84 205 9 1 42 -16 73 -39 45 -31 56 -45 52 -60 -4 -12 8 -43 35 -88 59 -99 82 -164 70 -196 -14 -38 -36 -40 -82 -10 -72 48 -136 114 -315 326 -173 206 -173 207 -221 213 -94 13 -98 16 -141 73 -52 71 -44 85 34 59 45 -16 72 -18 157 -13 57 4 144 15 193 26 144 31 167 28 221 -21z m2374 -354 l0 -395 -35 3 c-41 3 -48 21 -10 26 l25 3 0 370 0 369 -370 0 -370 0 0 -369 0 -370 32 -3 c37 -4 51 -27 16 -26 -13 0 -33 2 -45 4 l-23 4 0 390 0 390 390 0 390 0 0 -396z m-167 212 c-5 -30 -1 -36 36 -62 22 -16 45 -41 51 -55 14 -33 9 -94 -7 -95 -7 -1 -15 -3 -18 -4 -8 -4 -23 -7 -39 -9 -8 0 -13 -9 -11 -18 2 -10 4 -57 4 -104 1 -82 3 -89 36 -138 43 -62 44 -93 6 -132 -39 -39 -84 -39 -119 -1 l-26 29 -50 -26 c-41 -21 -67 -27 -143 -29 -116 -5 -185 15 -243 68 -37 35 -41 42 -38 80 3 37 7 45 43 64 l40 23 2 114 c1 63 3 117 4 122 1 4 2 10 3 15 1 4 10 25 19 46 20 45 15 56 -14 37 -28 -17 -34 -8 -19 28 16 39 55 49 85 21 19 -18 23 -19 35 -5 7 8 30 20 52 26 33 9 45 7 76 -9 34 -17 40 -18 60 -4 20 13 24 13 42 -3 27 -25 27 -59 0 -50 -24 8 -24 5 -4 -43 8 -20 14 -57 13 -82 -1 -25 -1 -87 0 -137 l1 -93 30 0 c23 0 33 -6 43 -26 l12 -27 6 24 c4 13 7 66 8 117 1 100 -6 121 -61 174 -33 31 -35 60 -9 97 13 18 18 36 14 51 -4 17 -2 21 8 18 23 -8 22 -48 -1 -73 -26 -28 -21 -68 9 -85 16 -8 18 -7 14 11 -4 15 0 22 16 26 21 5 21 7 5 24 -25 28 -2 23 55 -11 39 -22 48 -25 39 -11 -6 10 -25 27 -42 37 -17 9 -34 22 -38 28 -10 14 -10 70 -1 79 15 16 21 5 16 -27z m-1820 -397 c12 -6 32 -21 45 -32 19 -18 22 -18 22 -3 0 24 28 31 49 12 17 -16 19 -16 24 4 7 26 19 25 55 -5 29 -24 30 -24 35 -5 7 27 47 26 82 -1 22 -18 29 -20 36 -8 5 8 9 17 9 22 0 13 27 8 51 -10 31 -23 65 -22 82 1 14 19 15 19 45 -2 28 -21 30 -21 25 -3 -8 31 16 34 52 6 40 -30 48 -54 10 -29 -32 21 -42 12 -22 -19 19 -30 16 -61 -7 -65 -19 -4 -87 33 -99 54 -12 21 -41 18 -32 -3 28 -69 7 -70 -40 -3 -31 44 -55 61 -55 40 0 -7 12 -26 26 -42 14 -18 21 -35 16 -40 -14 -14 -35 -1 -60 38 -26 39 -67 63 -82 48 -7 -7 2 -19 27 -35 42 -27 49 -52 17 -57 -23 -3 -84 42 -84 61 0 15 -40 41 -48 32 -3 -3 -1 -15 6 -25 7 -11 17 -29 24 -40 25 -40 -4 -31 -56 18 -30 29 -57 52 -60 52 -15 0 -3 -22 24 -47 34 -30 38 -43 12 -43 -10 0 -38 20 -62 45 -73 75 -83 51 -19 -50 66 -105 36 -140 -51 -59 -55 51 -57 52 -34 5 27 -55 0 -78 -56 -46 -30 17 -44 19 -34 4 14 -23 -33 11 -50 35 -15 24 -22 56 -11 56 3 0 30 -14 60 -31 46 -26 55 -28 55 -14 0 16 -51 116 -71 141 -6 7 -3 16 7 25 14 11 18 10 30 -6 39 -55 107 -135 115 -135 5 0 -4 27 -21 60 -29 58 -37 90 -23 103 8 9 11 9 36 -4z"/>
<path d="M1590 927 c0 -21 103 -112 140 -125 27 -10 30 -9 30 8 0 11 -19 43 -43 72 -38 47 -48 53 -85 56 -32 2 -42 0 -42 -11z"/>
<path d="M2060 840 c0 -20 34 -63 74 -91 66 -48 88 -35 37 23 -32 37 -111 85 -111 68z"/>
<path d="M2709 852 c-47 -21 -81 -66 -94 -127 -6 -28 -6 -29 12 -14 10 9 24 14 31 12 7 -3 11 1 10 9 -2 7 3 11 12 9 8 -2 23 -3 33 -3 13 1 17 -4 13 -14 -3 -9 -6 -18 -6 -20 0 -2 -17 -4 -39 -4 -42 0 -74 -23 -45 -34 21 -8 26 -8 20 3 -3 5 9 11 27 14 35 5 48 0 30 -11 -7 -4 8 -18 38 -34 27 -14 49 -21 49 -15 0 6 15 23 33 38 l32 28 -35 1 c-36 0 -60 14 -60 35 0 15 55 12 75 -5 13 -11 15 -9 15 16 0 31 -32 90 -59 111 -17 13 -66 16 -92 5z m63 -19 c28 -25 22 -33 -27 -33 -49 0 -53 4 -28 32 20 22 31 23 55 1z m-2 -53 c13 -8 13 -11 -2 -27 -10 -9 -18 -12 -18 -6 0 6 -3 18 -6 27 -7 18 4 20 26 6z m62 -112 c-12 -12 -54 -7 -59 8 -2 6 10 8 33 6 23 -3 32 -8 26 -14z"/>
<path d="M3040 755 c7 -8 10 -25 8 -38 -4 -20 -1 -23 19 -19 40 8 28 48 -21 66 -16 5 -17 4 -6 -9z"/>
<path d="M3000 740 c0 -7 3 -10 7 -7 3 4 3 10 0 14 -4 3 -7 0 -7 -7z"/>
<path d="M2995 700 c3 -5 8 -10 11 -10 2 0 4 5 4 10 0 6 -5 10 -11 10 -5 0 -7 -4 -4 -10z"/>
<path d="M2609 576 c0 0 -2 -35 -4 -76 -5 -126 -2 -116 -23 -97 -39 35 -83 15 -73 -33 26 -123 379 -134 436 -13 24 49 14 67 -33 59 l-38 -6 4 83 4 82 -136 1 c-75 1 -136 1 -137 0z"/>
<path d="M3028 413 c-2 -5 9 -20 24 -35 15 -15 28 -24 28 -21 0 11 -49 63 -52 56z"/>
<path d="M2996 368 c-20 -29 -20 -62 0 -82 26 -27 32 -18 31 44 -1 33 -5 60 -9 60 -4 0 -14 -10 -22 -22z"/>
<path d="M3080 330 c0 -7 3 -10 7 -7 3 4 3 10 0 14 -4 3 -7 0 -7 -7z"/>
<path d="M1720 441 c0 -12 49 -51 63 -51 6 0 -2 14 -18 30 -29 30 -45 38 -45 21z"/>
<path d="M1490 385 c7 -8 17 -15 22 -15 6 0 5 7 -2 15 -7 8 -17 15 -22 15 -6 0 -5 -7 2 -15z"/>
</g>


</svg>