<!DOCTYPE svg PUBLIC "-//W3C//DTD SVG 20010904//EN" "http://www.w3.org/TR/2001/REC-SVG-20010904/DTD/svg10.dtd">
<svg version="1.0" xmlns="http://www.w3.org/2000/svg" width="221px" height="109px" viewBox="0 0 2210 1090" preserveAspectRatio="xMidYMid meet">
<g id="layer101" fill="#000000" stroke="none">
</g>
<g id="layer102" fill="#c91817" stroke="none">
<path d="M1014 285 c-9 -23 4 -65 38 -118 62 -96 16 -54 -100 93 -16 20 -22 22 -35 12 -12 -11 -9 -22 24 -85 52 -98 50 -105 -16 -68 -65 37 -65 37 -65 12 0 -28 40 -71 70 -76 14 -3 40 -8 57 -11 48 -9 54 17 19 80 l-28 49 60 -62 c40 -42 66 -62 78 -59 32 6 27 36 -16 108 -54 90 -48 108 17 47 27 -26 57 -47 67 -47 23 0 20 10 -16 47 -48 50 -14 40 41 -12 26 -25 51 -45 55 -45 14 0 5 35 -15 56 -12 12 -19 28 -17 36 3 8 14 2 31 -17 61 -67 71 -75 99 -75 47 0 35 36 -21 64 -40 21 -29 43 14 26 38 -14 42 -7 9 19 -31 24 -72 28 -80 6 -5 -13 -11 -12 -35 6 -32 23 -59 19 -59 -7 0 -16 -1 -16 -18 -1 -23 21 -36 21 -52 2 -11 -13 -16 -12 -42 10 -34 28 -56 32 -64 10z"/>
<path d="M1610 270 c0 -20 -1 -20 -25 -4 -23 15 -27 15 -43 1 -26 -23 -57 -24 -80 -4 -28 25 -54 18 -63 -18 -10 -37 17 -89 49 -93 29 -4 28 10 -3 46 -25 30 -32 52 -17 52 12 0 42 -34 42 -47 0 -11 42 -53 53 -53 12 0 8 35 -5 48 -21 21 2 26 25 5 29 -27 81 -53 107 -53 25 0 27 35 4 68 -21 30 -11 39 21 18 35 -23 31 -3 -6 28 -37 31 -59 33 -59 6z m-5 -50 c16 -16 24 -30 18 -30 -14 0 -63 39 -63 51 0 17 16 9 45 -21z"/>
</g>
<g id="layer103" fill="#fc3130" stroke="none">
<path d="M1014 285 c-9 -23 4 -65 38 -118 62 -96 16 -54 -100 93 -16 20 -22 22 -35 12 -12 -11 -9 -22 24 -85 52 -98 50 -105 -16 -68 -65 37 -65 37 -65 12 0 -30 41 -72 75 -77 102 -18 115 -2 65 79 l-32 52 64 -69 c45 -46 71 -67 84 -64 32 6 27 36 -16 108 -54 90 -48 108 17 47 27 -26 57 -47 67 -47 23 0 20 10 -16 47 -48 50 -14 40 41 -12 26 -25 51 -45 55 -45 14 0 5 35 -15 56 -12 12 -19 28 -17 36 3 8 14 2 31 -17 61 -67 71 -75 99 -75 47 0 35 36 -21 64 -40 21 -29 43 14 26 38 -14 42 -7 9 19 -31 24 -72 28 -80 6 -5 -13 -11 -12 -35 6 -32 23 -59 19 -59 -7 0 -16 -1 -16 -18 -1 -23 21 -36 21 -52 2 -11 -13 -16 -12 -42 10 -34 28 -56 32 -64 10z"/>
<path d="M1610 270 c0 -20 -1 -20 -25 -4 -23 15 -27 15 -43 1 -26 -23 -57 -24 -80 -4 -28 25 -54 18 -63 -18 -10 -37 17 -89 49 -93 29 -4 28 10 -3 46 -25 30 -32 52 -17 52 12 0 42 -34 42 -47 0 -11 42 -53 53 -53 12 0 8 35 -5 48 -21 21 2 26 25 5 29 -27 81 -53 107 -53 25 0 27 35 4 68 -21 30 -11 39 21 18 35 -23 31 -3 -6 28 -37 31 -59 33 -59 6z m-2 -51 c19 -17 32 -32 30 -35 -7 -6 -71 39 -76 54 -6 20 11 13 46 -19z"/>
</g>
<g id="layer104" fill="#e67978" stroke="none">
<path d="M1015 290 c-3 -6 1 -7 10 -4 18 7 72 -25 57 -35 -5 -3 1 -14 17 -25 14 -11 21 -13 14 -7 -8 10 -7 18 5 32 20 23 35 24 52 4 14 -17 30 -20 30 -4 0 5 -4 8 -9 5 -5 -3 -14 1 -21 9 -16 19 -34 19 -50 0 -11 -13 -16 -12 -42 10 -31 26 -53 32 -63 15z"/>
<path d="M1194 278 c-5 -7 -3 -8 5 -3 7 4 24 2 37 -6 13 -7 20 -15 15 -19 -6 -3 -2 -11 8 -17 29 -18 20 15 -10 38 -28 21 -45 24 -55 7z"/>
<path d="M931 268 c9 -7 29 -31 46 -53 28 -38 29 -41 12 -57 -16 -15 -18 -14 -29 13 -7 16 -17 32 -22 35 -5 3 2 -16 15 -42 13 -27 27 -56 31 -64 3 -8 4 -5 2 8 -2 12 -1 22 4 22 12 0 33 -58 26 -75 -4 -10 -2 -14 5 -9 11 6 9 31 -6 69 -5 13 6 7 36 -20 24 -22 35 -30 25 -17 -17 20 -17 22 -3 22 10 0 17 8 17 20 0 11 -4 20 -10 20 -5 0 -6 -8 -3 -17 6 -16 5 -16 -10 -4 -13 10 -17 11 -17 1 0 -9 -7 -7 -21 6 -12 10 -24 18 -27 16 -4 -2 -8 2 -11 9 -2 7 1 9 8 5 6 -4 11 -2 11 5 0 7 9 5 23 -7 12 -10 8 -3 -9 16 -17 19 -43 52 -59 73 -15 20 -32 37 -38 37 -6 0 -4 -6 4 -12z"/>
<path d="M1407 273 c-4 -3 -7 -14 -7 -24 0 -13 -5 -17 -17 -12 -15 6 -16 5 -3 -9 19 -20 27 -15 32 22 5 32 5 33 -5 23z"/>
<path d="M1531 260 c-18 -15 -19 -20 -7 -20 9 0 16 6 17 13 0 6 5 0 10 -15 6 -14 17 -29 26 -33 14 -5 14 -3 -2 15 -29 33 -8 36 26 4 23 -21 29 -23 22 -9 -6 11 -8 26 -5 34 3 8 0 11 -6 7 -6 -3 -13 -2 -16 3 -3 5 -16 7 -29 4 -18 -4 -19 -3 -7 6 8 6 11 11 5 11 -5 -1 -21 -10 -34 -20z"/>
<path d="M1658 269 c6 -9 8 -20 4 -25 -4 -5 -3 -6 2 -2 5 4 15 0 22 -10 7 -9 14 -12 14 -6 0 6 -12 21 -27 35 -15 13 -22 17 -15 8z"/>
<path d="M1453 234 c9 -11 17 -25 17 -31 0 -6 7 -16 15 -23 13 -10 13 -8 0 18 -9 16 -23 36 -33 43 -16 13 -16 12 1 -7z"/>
<path d="M1166 199 c16 -20 31 -34 33 -32 3 2 -10 18 -29 36 l-34 32 30 -36z"/>
<path d="M1217 190 c23 -24 44 -42 46 -40 2 3 -17 23 -42 44 l-46 40 42 -44z"/>
<path d="M1500 219 c0 -5 5 -7 11 -4 6 4 23 -4 37 -16 l27 -24 -24 28 c-25 27 -51 36 -51 16z"/>
<path d="M1320 210 c-10 -6 -11 -12 -3 -22 6 -7 11 -17 10 -23 0 -5 8 -11 19 -12 19 -3 19 -3 0 5 -18 8 -18 9 -3 15 20 8 22 33 4 40 -8 3 -20 1 -27 -3z"/>
<path d="M1089 165 c5 -11 17 -29 26 -40 l16 -20 -10 20 c-5 11 -17 29 -26 40 l-16 20 10 -20z"/>
<path d="M860 123 c0 -7 10 -22 23 -35 12 -13 17 -17 11 -8 -6 8 -16 24 -22 35 -6 11 -12 15 -12 8z"/>
<path d="M920 62 c0 -4 8 -8 18 -9 9 -1 28 -4 42 -8 16 -4 13 0 -9 9 -37 18 -51 20 -51 8z"/>
</g>
<g id="layer105" fill="#fca2a0" stroke="none">
</g>
<g id="layer106" fill="#e3b7b8" stroke="none">
<path d="M1180 1040 c-20 -38 6 -106 89 -235 43 -66 86 -135 96 -152 11 -18 25 -33 32 -33 7 0 13 -9 13 -21 0 -26 -33 -22 -38 5 -2 10 -19 32 -38 48 -19 17 -34 36 -34 43 0 19 -134 141 -180 165 -50 25 -75 25 -100 0 -24 -24 -27 -91 -5 -110 14 -12 21 -40 9 -40 -3 0 -28 25 -56 55 -65 72 -100 91 -138 75 -64 -26 -72 -121 -19 -220 39 -73 96 -125 146 -133 38 -7 73 6 73 26 0 6 -40 51 -90 98 -60 57 -90 94 -90 108 0 46 68 4 245 -153 65 -58 125 -106 132 -106 14 0 33 31 33 55 0 9 -22 40 -49 68 -89 95 -122 160 -87 173 17 6 91 -30 103 -50 22 -39 329 -357 348 -362 24 -6 65 10 65 26 0 5 -28 42 -63 82 -71 83 -102 128 -87 128 5 0 10 -4 10 -9 0 -13 158 -91 184 -91 30 0 46 18 46 52 0 43 -26 86 -98 161 -61 62 -63 67 -39 67 14 0 38 -5 53 -10 46 -18 148 -100 166 -134 22 -43 100 -113 151 -137 46 -20 117 -25 148 -9 25 14 25 56 -1 98 -23 37 -116 101 -179 122 -38 12 -42 16 -39 44 7 67 95 55 206 -29 45 -34 59 -40 65 -29 12 21 -7 48 -71 100 -104 86 -189 112 -253 78 -32 -16 -59 -66 -59 -109 0 -24 -2 -23 -68 25 -98 72 -135 82 -262 74 l-105 -6 -55 109 c-42 82 -60 109 -77 111 -14 2 -26 -4 -33 -18z m374 -356 c70 -85 59 -109 -25 -56 -24 16 -57 44 -73 63 l-29 34 24 6 c46 13 57 8 103 -47z m412 -75 c44 -30 82 -75 71 -85 -10 -10 -63 25 -100 65 -56 62 -44 70 29 20z"/>
</g>
<g id="layer107" fill="#e6d7b9" stroke="none">
<path d="M1180 1040 c-20 -38 6 -106 89 -235 43 -66 86 -135 96 -152 11 -18 25 -33 32 -33 7 0 13 -9 13 -21 0 -26 -33 -22 -38 5 -2 10 -19 32 -38 48 -19 17 -34 36 -34 43 0 19 -134 141 -180 165 -50 25 -75 25 -100 0 -24 -24 -27 -91 -5 -110 14 -12 21 -40 9 -40 -3 0 -28 25 -56 55 -65 72 -100 91 -138 75 -64 -26 -72 -121 -19 -220 39 -73 96 -125 146 -133 38 -7 73 6 73 26 0 6 -40 51 -90 98 -60 57 -90 94 -90 108 0 46 68 4 245 -153 65 -58 125 -106 132 -106 14 0 33 31 33 55 0 9 -22 40 -49 68 -89 95 -122 160 -87 173 17 6 91 -30 103 -50 22 -39 329 -357 348 -362 24 -6 65 10 65 26 0 5 -28 42 -63 82 -71 83 -102 128 -87 128 5 0 10 -4 10 -9 0 -13 158 -91 184 -91 30 0 46 18 46 52 0 43 -26 86 -98 161 -61 62 -63 67 -39 67 39 0 77 -17 134 -62 32 -24 57 -37 65 -32 7 4 10 4 6 -1 -23 -25 88 -150 165 -186 46 -20 117 -25 148 -9 25 14 25 56 -1 98 -23 37 -116 101 -179 122 -38 12 -42 16 -39 44 7 67 95 55 206 -29 45 -34 59 -40 65 -29 12 21 -7 48 -71 100 -104 86 -189 112 -253 78 -32 -16 -59 -66 -59 -109 0 -24 -2 -23 -68 25 -98 72 -135 82 -262 74 l-105 -6 -55 109 c-42 82 -60 109 -77 111 -14 2 -26 -4 -33 -18z m374 -356 c70 -85 59 -109 -25 -56 -24 16 -57 44 -73 63 l-29 34 24 6 c46 13 57 8 103 -47z m412 -75 c44 -30 82 -75 71 -85 -10 -10 -63 25 -100 65 -56 62 -44 70 29 20z"/>
<path d="M410 855 c-137 -28 -253 -31 -303 -10 -47 19 -86 19 -93 0 -6 -14 14 -48 64 -113 14 -18 34 -25 90 -34 l72 -10 173 -207 c275 -327 375 -403 416 -317 12 25 12 36 -2 80 -9 28 -36 85 -61 126 -31 54 -41 79 -34 87 12 15 -33 61 -99 100 -36 21 -46 23 -59 12 -29 -24 9 -118 89 -225 25 -32 43 -61 41 -63 -7 -7 -43 30 -192 199 -80 91 -154 174 -164 186 -18 20 -18 20 115 47 72 14 165 34 206 43 l74 17 -56 53 c-53 52 -57 54 -109 53 -29 -1 -105 -12 -168 -24z"/>
</g>


</svg>