<!DOCTYPE svg PUBLIC "-//W3C//DTD SVG 20010904//EN" "http://www.w3.org/TR/2001/REC-SVG-20010904/DTD/svg10.dtd">
<svg version="1.0" xmlns="http://www.w3.org/2000/svg" width="221px" height="109px" viewBox="0 0 2210 1090" preserveAspectRatio="xMidYMid meet">
<g id="layer101" fill="#0e1a01" stroke="none">
<path d="M0 545 l0 -545 1105 0 1105 0 0 545 0 545 -1105 0 -1105 0 0 -545z"/>
</g>
<g id="layer102" fill="#f81e1d" stroke="none">
<path d="M1023 293 c-22 -8 -14 -44 23 -117 l37 -71 -33 35 c-18 19 -49 55 -68 80 -20 25 -39 49 -44 54 -11 13 -40 -14 -30 -28 20 -26 72 -128 72 -143 0 -11 -13 -8 -56 17 -31 17 -58 29 -61 26 -13 -12 10 -57 39 -77 17 -13 28 -18 24 -11 -10 16 5 15 28 -3 26 -19 65 -19 72 0 4 8 -1 30 -10 49 -9 19 -16 36 -16 39 0 2 22 -18 49 -45 86 -86 120 -46 51 60 -63 99 -54 120 21 46 29 -28 54 -45 65 -42 15 3 13 8 -16 38 -52 53 -16 50 39 -4 26 -25 50 -46 54 -46 14 0 7 28 -14 54 -41 52 -12 51 36 -1 48 -52 85 -67 101 -41 8 13 -39 58 -62 58 -18 0 -18 19 0 26 22 9 69 -24 87 -59 9 -18 25 -33 37 -35 28 -4 28 4 -3 44 -25 33 -32 54 -17 54 12 0 42 -34 42 -47 0 -11 42 -53 53 -53 11 0 8 35 -4 47 -6 6 -9 17 -7 24 3 8 17 1 39 -19 40 -35 86 -55 106 -48 17 7 17 37 -2 62 -8 10 -15 22 -15 27 0 13 23 8 42 -10 10 -9 18 -11 18 -5 0 16 -67 65 -80 57 -5 -3 -10 -13 -10 -21 0 -12 -4 -12 -26 3 -25 16 -27 16 -43 -3 -20 -24 -53 -24 -80 0 -25 23 -55 17 -59 -12 l-3 -23 -30 26 c-35 29 -74 33 -87 8 -9 -15 -12 -14 -33 5 -29 28 -49 28 -56 2 -5 -20 -7 -20 -24 -4 -21 19 -49 12 -49 -12 0 -15 -3 -15 -22 3 -30 27 -60 41 -75 36z m581 -72 c25 -26 26 -29 8 -24 -27 7 -71 53 -51 53 9 0 28 -13 43 -29z m-254 -36 c7 -8 8 -15 2 -15 -5 0 -15 7 -22 15 -7 8 -8 15 -2 15 5 0 15 -7 22 -15z"/>
</g>
<g id="layer103" fill="#e7d6b4" stroke="none">
<path d="M1181 1036 c-17 -43 7 -110 79 -216 67 -100 139 -220 132 -220 -12 0 -92 85 -92 97 0 19 -138 140 -186 163 -51 25 -87 21 -105 -12 -11 -21 -8 -74 7 -113 4 -11 -23 8 -59 43 -60 57 -70 63 -103 60 -110 -9 -97 -188 22 -303 44 -44 49 -46 97 -43 28 2 52 8 54 14 3 10 -75 97 -134 146 -32 27 -52 72 -39 86 15 14 97 -43 214 -148 163 -146 172 -150 187 -88 6 23 -2 36 -53 91 -113 121 -127 206 -25 150 26 -15 192 -187 335 -349 21 -23 49 -45 63 -48 26 -7 65 8 65 24 0 5 -28 41 -62 79 -35 38 -72 84 -82 102 l-20 33 35 -23 c19 -12 62 -36 97 -53 71 -34 108 -32 118 7 11 43 -16 95 -88 171 l-71 74 32 0 c38 0 81 -21 139 -68 23 -19 42 -30 42 -26 0 5 13 -14 30 -42 16 -28 50 -70 75 -92 75 -66 192 -94 228 -54 50 56 -22 142 -169 203 -57 24 -70 40 -54 70 27 49 105 33 202 -40 60 -46 66 -48 71 -30 7 24 -78 109 -151 151 -119 69 -205 40 -230 -76 l-7 -36 -45 36 c-91 73 -207 111 -267 87 -12 -4 -43 -7 -70 -5 l-48 4 -45 86 c-70 134 -100 161 -119 108z m376 -354 c45 -55 54 -82 28 -82 -22 0 -85 42 -125 84 -29 31 -32 38 -20 47 34 22 73 5 117 -49z m454 -110 c47 -54 34 -69 -28 -31 -31 20 -83 83 -83 102 0 15 82 -37 111 -71z"/>
<path d="M415 855 c-144 -28 -249 -31 -321 -9 -55 18 -88 14 -82 -11 2 -8 21 -39 43 -69 34 -47 46 -56 80 -61 112 -17 94 -3 285 -229 164 -195 251 -285 322 -331 35 -21 74 -13 84 18 16 49 -1 103 -71 224 -20 35 -31 64 -26 68 19 11 -1 34 -71 82 -65 44 -71 46 -83 30 -25 -34 9 -119 89 -221 47 -60 54 -85 14 -50 -11 10 -95 102 -186 204 l-164 185 33 7 c19 4 108 23 198 42 90 19 166 38 170 41 3 4 -17 29 -46 56 -48 45 -55 49 -100 48 -26 0 -102 -11 -168 -24z"/>
</g>


</svg>